<?xml version="1.0" encoding="UTF-8"?>
<svg xmlns="http://www.w3.org/2000/svg" xmlns:xlink="http://www.w3.org/1999/xlink" width="50px" height="60px" viewBox="0 0 50 60" version="1.1">
<defs>
<filter id="alpha" filterUnits="objectBoundingBox" x="0%" y="0%" width="100%" height="100%">
  <feColorMatrix type="matrix" in="SourceGraphic" values="0 0 0 0 1 0 0 0 0 1 0 0 0 0 1 0 0 0 1 0"/>
</filter>
<mask id="mask0">
  <g filter="url(#alpha)">
<rect x="0" y="0" width="50" height="60" style="fill:rgb(0%,0%,0%);fill-opacity:0.639216;stroke:none;"/>
  </g>
</mask>
<clipPath id="clip1">
  <rect x="0" y="0" width="50" height="60"/>
</clipPath>
<g id="surface5" clip-path="url(#clip1)">
<path style=" stroke:none;fill-rule:nonzero;fill:rgb(93.725491%,69.803923%,56.862748%);fill-opacity:1;" d="M 20.316406 35.132812 C 20.550781 35.332031 20.777344 35.542969 21.015625 35.738281 C 21.421875 36.066406 21.886719 36.316406 22.363281 36.53125 C 23.308594 36.960938 24.335938 37.203125 25.382812 37.21875 C 26.246094 37.234375 27.113281 37.113281 27.945312 36.878906 C 28.625 36.691406 29.28125 36.421875 29.894531 36.078125 C 29.773438 33.148438 30.105469 28.714844 30.105469 28.714844 L 20.132812 28.714844 C 20.132812 28.714844 20.40625 32.269531 20.316406 35.132812 Z M 20.316406 35.132812 "/>
</g>
<mask id="mask1">
  <g filter="url(#alpha)">
<rect x="0" y="0" width="50" height="60" style="fill:rgb(0%,0%,0%);fill-opacity:0.639216;stroke:none;"/>
  </g>
</mask>
<clipPath id="clip2">
  <rect x="0" y="0" width="50" height="60"/>
</clipPath>
<g id="surface8" clip-path="url(#clip2)">
<path style=" stroke:none;fill-rule:nonzero;fill:rgb(93.725491%,69.803923%,56.862748%);fill-opacity:1;" d="M 30.894531 39.167969 C 30.863281 39.46875 30.824219 39.773438 30.773438 40.070312 C 30.652344 40.792969 30.457031 41.503906 30.148438 42.167969 C 29.851562 42.808594 29.4375 43.394531 28.902344 43.859375 C 28.390625 44.300781 27.796875 44.640625 27.167969 44.878906 C 26.523438 45.117188 25.839844 45.253906 25.152344 45.296875 C 24.460938 45.339844 23.765625 45.285156 23.089844 45.132812 C 22.425781 44.980469 21.773438 44.734375 21.195312 44.375 C 20.59375 44 20.101562 43.472656 19.800781 42.832031 C 19.433594 42.054688 19.316406 41.191406 19.222656 40.347656 C 19.179688 39.953125 19.207031 39.558594 19.222656 39.164062 C 19.226562 39.101562 19.226562 39.042969 19.230469 38.980469 C 17.707031 40.1875 14.964844 41.410156 14.003906 41.890625 C 14.089844 42.113281 14.179688 42.335938 14.289062 42.546875 C 14.414062 42.789062 14.570312 43.015625 14.726562 43.234375 C 15.390625 44.160156 16.226562 44.957031 17.113281 45.671875 C 18.730469 46.984375 20.679688 47.855469 22.734375 48.242188 C 23.757812 48.433594 24.820312 48.527344 25.863281 48.46875 C 26.867188 48.417969 27.859375 48.210938 28.804688 47.871094 C 29.761719 47.527344 30.664062 47.046875 31.488281 46.460938 C 32.316406 45.867188 33.023438 45.164062 33.683594 44.398438 C 34.382812 43.589844 35.050781 42.746094 35.613281 41.839844 C 35.652344 41.78125 35.683594 41.726562 35.71875 41.667969 C 34.609375 41.101562 32.167969 40.265625 30.894531 39.167969 Z M 30.894531 39.167969 "/>
</g>
<mask id="mask2">
  <g filter="url(#alpha)">
<rect x="0" y="0" width="50" height="60" style="fill:rgb(0%,0%,0%);fill-opacity:0.639216;stroke:none;"/>
  </g>
</mask>
<clipPath id="clip3">
  <rect x="0" y="0" width="50" height="60"/>
</clipPath>
<g id="surface11" clip-path="url(#clip3)">
<path style=" stroke:none;fill-rule:nonzero;fill:rgb(92.156863%,57.647061%,42.745098%);fill-opacity:1;" d="M 34.519531 28.207031 C 34.59375 27.949219 34.667969 27.6875 34.734375 27.425781 C 35 26.378906 35.207031 25.316406 35.285156 24.238281 C 35.351562 23.375 35.339844 22.492188 35.175781 21.636719 C 34.570312 21.925781 34.125 22.503906 33.863281 23.070312 C 33.699219 23.433594 33.605469 23.824219 33.558594 24.214844 C 33.308594 24.910156 33.195312 25.675781 33.246094 26.40625 C 33.285156 26.917969 33.359375 27.863281 33.933594 28.140625 C 34.105469 28.222656 34.308594 28.238281 34.519531 28.207031 Z M 34.519531 28.207031 "/>
</g>
<mask id="mask3">
  <g filter="url(#alpha)">
<rect x="0" y="0" width="50" height="60" style="fill:rgb(0%,0%,0%);fill-opacity:0.670588;stroke:none;"/>
  </g>
</mask>
<clipPath id="clip4">
  <rect x="0" y="0" width="50" height="60"/>
</clipPath>
<g id="surface14" clip-path="url(#clip4)">
<path style=" stroke:none;fill-rule:nonzero;fill:rgb(92.156863%,57.647061%,42.745098%);fill-opacity:1;" d="M 37.644531 22.890625 C 37.507812 22.675781 37.265625 22.546875 37.011719 22.515625 C 36.425781 22.445312 35.828125 22.851562 35.464844 23.257812 C 34.648438 24.164062 34.503906 25.472656 34.464844 26.628906 C 34.464844 26.695312 34.566406 26.648438 34.570312 26.601562 C 34.601562 26.414062 34.628906 26.226562 34.660156 26.035156 C 34.683594 26.171875 34.71875 26.304688 34.753906 26.425781 C 34.820312 26.660156 34.972656 26.867188 35.238281 26.878906 C 35.882812 26.910156 36.324219 26.15625 36.628906 25.726562 C 36.660156 25.683594 36.59375 25.675781 36.570312 25.703125 C 36.28125 26.03125 35.984375 26.457031 35.554688 26.617188 C 35.207031 26.746094 35.050781 26.5 34.953125 26.21875 C 34.875 25.988281 34.75 25.722656 34.800781 25.476562 C 34.804688 25.441406 34.792969 25.425781 34.773438 25.417969 C 34.890625 24.855469 35.058594 24.300781 35.351562 23.808594 C 35.605469 23.378906 35.988281 22.988281 36.480469 22.835938 C 36.816406 22.726562 37.183594 22.78125 37.394531 23.082031 C 37.589844 23.363281 37.53125 23.734375 37.582031 24.054688 C 37.589844 24.09375 37.652344 24.054688 37.652344 24.027344 C 37.667969 23.652344 37.867188 23.25 37.644531 22.890625 Z M 37.644531 22.890625 "/>
</g>
<mask id="mask4">
  <g filter="url(#alpha)">
<rect x="0" y="0" width="50" height="60" style="fill:rgb(0%,0%,0%);fill-opacity:0.639216;stroke:none;"/>
  </g>
</mask>
<clipPath id="clip5">
  <rect x="0" y="0" width="50" height="60"/>
</clipPath>
<g id="surface17" clip-path="url(#clip5)">
<path style=" stroke:none;fill-rule:nonzero;fill:rgb(92.156863%,57.647061%,42.745098%);fill-opacity:1;" d="M 16.117188 28.207031 C 16.042969 27.949219 15.972656 27.6875 15.902344 27.425781 C 15.636719 26.378906 15.433594 25.316406 15.351562 24.238281 C 15.285156 23.375 15.300781 22.492188 15.460938 21.636719 C 16.066406 21.925781 16.515625 22.503906 16.773438 23.070312 C 16.9375 23.433594 17.03125 23.824219 17.078125 24.214844 C 17.328125 24.910156 17.441406 25.675781 17.390625 26.40625 C 17.351562 26.917969 17.277344 27.863281 16.703125 28.140625 C 16.53125 28.222656 16.328125 28.238281 16.117188 28.207031 Z M 16.117188 28.207031 "/>
</g>
<mask id="mask5">
  <g filter="url(#alpha)">
<rect x="0" y="0" width="50" height="60" style="fill:rgb(0%,0%,0%);fill-opacity:0.670588;stroke:none;"/>
  </g>
</mask>
<clipPath id="clip6">
  <rect x="0" y="0" width="50" height="60"/>
</clipPath>
<g id="surface20" clip-path="url(#clip6)">
<path style=" stroke:none;fill-rule:nonzero;fill:rgb(92.156863%,57.647061%,42.745098%);fill-opacity:1;" d="M 12.992188 22.890625 C 13.128906 22.675781 13.371094 22.546875 13.625 22.515625 C 14.210938 22.445312 14.808594 22.851562 15.175781 23.257812 C 15.988281 24.164062 16.132812 25.472656 16.171875 26.628906 C 16.171875 26.695312 16.074219 26.648438 16.066406 26.601562 C 16.039062 26.414062 16.007812 26.226562 15.980469 26.035156 C 15.953125 26.171875 15.917969 26.304688 15.886719 26.425781 C 15.816406 26.660156 15.664062 26.867188 15.398438 26.878906 C 14.753906 26.910156 14.316406 26.15625 14.007812 25.726562 C 13.976562 25.683594 14.042969 25.675781 14.066406 25.703125 C 14.355469 26.03125 14.652344 26.457031 15.082031 26.617188 C 15.429688 26.746094 15.585938 26.5 15.683594 26.21875 C 15.761719 25.988281 15.890625 25.722656 15.835938 25.476562 C 15.832031 25.441406 15.84375 25.425781 15.867188 25.417969 C 15.746094 24.855469 15.578125 24.300781 15.285156 23.808594 C 15.03125 23.378906 14.648438 22.988281 14.15625 22.835938 C 13.820312 22.726562 13.453125 22.78125 13.242188 23.082031 C 13.046875 23.363281 13.105469 23.734375 13.054688 24.054688 C 13.050781 24.09375 12.988281 24.054688 12.984375 24.027344 C 12.96875 23.652344 12.773438 23.25 12.992188 22.890625 Z M 12.992188 22.890625 "/>
</g>
<mask id="mask6">
  <g filter="url(#alpha)">
<rect x="0" y="0" width="50" height="60" style="fill:rgb(0%,0%,0%);fill-opacity:0.231373;stroke:none;"/>
  </g>
</mask>
<clipPath id="clip7">
  <rect x="0" y="0" width="50" height="60"/>
</clipPath>
<g id="surface23" clip-path="url(#clip7)">
<path style=" stroke:none;fill-rule:nonzero;fill:rgb(92.156863%,57.647061%,42.745098%);fill-opacity:1;" d="M 28.445312 29.972656 C 28.050781 29.9375 27.65625 29.894531 27.261719 29.875 C 26.476562 29.828125 25.6875 29.832031 24.902344 29.875 C 24.519531 29.894531 24.136719 29.914062 23.757812 29.957031 C 23.632812 29.972656 23.488281 30.011719 23.359375 30.039062 C 22.949219 30.136719 22.535156 30.242188 22.113281 30.289062 C 21.949219 30.308594 21.777344 30.320312 21.613281 30.292969 C 21.890625 30.84375 22.410156 31.207031 22.976562 31.425781 C 23.273438 31.539062 23.582031 31.617188 23.890625 31.679688 C 24.183594 31.738281 24.480469 31.785156 24.777344 31.808594 C 25.382812 31.859375 26 31.820312 26.59375 31.699219 C 27.203125 31.574219 27.796875 31.363281 28.328125 31.039062 C 28.734375 30.789062 29.097656 30.464844 29.367188 30.074219 C 29.058594 30.0625 28.75 30.003906 28.445312 29.972656 Z M 28.445312 29.972656 "/>
</g>
<mask id="mask7">
  <g filter="url(#alpha)">
<rect x="0" y="0" width="50" height="60" style="fill:rgb(0%,0%,0%);fill-opacity:0.639216;stroke:none;"/>
  </g>
</mask>
<clipPath id="clip8">
  <rect x="0" y="0" width="50" height="60"/>
</clipPath>
<g id="surface26" clip-path="url(#clip8)">
<path style=" stroke:none;fill-rule:nonzero;fill:rgb(92.156863%,57.647061%,42.745098%);fill-opacity:1;" d="M 24.65625 27.539062 C 24.246094 27.484375 23.851562 27.363281 23.476562 27.210938 C 23.503906 27.367188 23.582031 27.511719 23.691406 27.640625 C 23.875 27.859375 24.125 28.019531 24.394531 28.128906 C 24.636719 28.226562 24.917969 28.292969 25.183594 28.261719 C 25.519531 28.21875 25.851562 28.097656 26.136719 27.917969 C 26.386719 27.765625 26.621094 27.554688 26.746094 27.289062 C 26.503906 27.378906 26.257812 27.453125 26.003906 27.5 C 25.558594 27.585938 25.105469 27.601562 24.65625 27.539062 Z M 24.65625 27.539062 "/>
</g>
<mask id="mask8">
  <g filter="url(#alpha)">
<rect x="0" y="0" width="50" height="60" style="fill:rgb(0%,0%,0%);fill-opacity:0.65098;stroke:none;"/>
  </g>
</mask>
<clipPath id="clip9">
  <rect x="0" y="0" width="50" height="60"/>
</clipPath>
<g id="surface29" clip-path="url(#clip9)">
<path style=" stroke:none;fill-rule:nonzero;fill:rgb(57.254905%,25.882354%,16.862746%);fill-opacity:1;" d="M 26.457031 27.660156 C 26.160156 27.878906 25.824219 28.074219 25.453125 28.140625 C 25.273438 28.171875 25.101562 28.164062 24.925781 28.117188 C 24.75 28.066406 24.582031 28 24.417969 27.917969 C 24.253906 27.832031 24.101562 27.722656 23.960938 27.601562 C 23.890625 27.542969 23.828125 27.484375 23.765625 27.417969 C 23.710938 27.355469 23.644531 27.285156 23.605469 27.210938 C 23.597656 27.195312 23.59375 27.179688 23.585938 27.164062 C 23.574219 27.152344 23.5625 27.144531 23.554688 27.128906 C 23.542969 27.089844 23.546875 27.035156 23.550781 27 C 23.554688 26.914062 23.574219 26.828125 23.59375 26.746094 C 23.640625 26.570312 23.695312 26.394531 23.746094 26.222656 C 23.890625 25.734375 24.042969 25.253906 24.171875 24.765625 C 24.175781 24.746094 24.152344 24.753906 24.148438 24.761719 C 23.984375 25.226562 23.808594 25.683594 23.652344 26.144531 C 23.589844 26.339844 23.523438 26.53125 23.464844 26.722656 C 23.4375 26.8125 23.414062 26.902344 23.398438 26.992188 C 23.390625 27.035156 23.386719 27.074219 23.382812 27.117188 C 23.382812 27.136719 23.386719 27.160156 23.386719 27.179688 C 23.386719 27.207031 23.371094 27.230469 23.371094 27.253906 C 23.367188 27.34375 23.429688 27.429688 23.480469 27.496094 C 23.539062 27.574219 23.605469 27.648438 23.675781 27.714844 C 23.820312 27.855469 23.984375 27.976562 24.164062 28.074219 C 24.519531 28.265625 24.921875 28.359375 25.328125 28.300781 C 25.765625 28.238281 26.203125 28.019531 26.5 27.703125 C 26.53125 27.667969 26.492188 27.636719 26.457031 27.660156 Z M 26.457031 27.660156 "/>
</g>
<mask id="mask9">
  <g filter="url(#alpha)">
<rect x="0" y="0" width="50" height="60" style="fill:rgb(0%,0%,0%);fill-opacity:0.509804;stroke:none;"/>
  </g>
</mask>
<clipPath id="clip10">
  <rect x="0" y="0" width="50" height="60"/>
</clipPath>
<g id="surface32" clip-path="url(#clip10)">
<path style=" stroke:none;fill-rule:nonzero;fill:rgb(25.882354%,26.274511%,27.450982%);fill-opacity:1;" d="M 35.222656 18.46875 C 35.21875 18.59375 35.207031 18.71875 35.207031 18.847656 C 35.199219 19.089844 35.214844 19.335938 35.21875 19.578125 C 35.21875 19.824219 35.214844 20.070312 35.207031 20.316406 C 35.171875 21.300781 35.101562 22.289062 35.019531 23.269531 C 34.976562 23.808594 34.917969 24.339844 34.824219 24.871094 C 34.816406 24.925781 34.894531 24.921875 34.921875 24.898438 C 35.105469 24.753906 35.191406 24.53125 35.328125 24.351562 C 35.40625 24.25 35.488281 24.148438 35.566406 24.046875 C 35.882812 22.976562 36.214844 21.894531 36.332031 20.78125 C 36.472656 19.5 36.253906 18.246094 35.8125 17.046875 C 35.796875 17.011719 35.84375 16.980469 35.871094 17 C 36.179688 17.183594 36.5 17.359375 36.851562 17.453125 C 37.160156 17.535156 37.46875 17.542969 37.773438 17.472656 C 37.429688 17.382812 37.101562 17.230469 36.824219 17.003906 C 36.546875 16.777344 36.332031 16.480469 36.183594 16.152344 C 35.90625 15.539062 35.847656 14.84375 35.863281 14.175781 C 35.878906 13.449219 36.015625 12.738281 36.09375 12.019531 C 36.179688 11.253906 36.222656 10.261719 35.578125 9.707031 C 35.253906 9.425781 34.808594 9.296875 34.382812 9.378906 C 33.964844 9.457031 33.609375 9.722656 33.390625 10.082031 C 33.371094 10.113281 33.324219 10.105469 33.3125 10.070312 C 33.097656 9.402344 33.09375 8.683594 33.257812 8.003906 C 33.554688 6.792969 34.46875 5.558594 35.816406 5.449219 C 35.964844 5.4375 36.113281 5.441406 36.257812 5.453125 C 35.832031 5.273438 35.382812 5.152344 34.925781 5.101562 C 34.542969 5.058594 34.160156 5.085938 33.785156 5.160156 C 33.617188 5.191406 33.445312 5.234375 33.277344 5.292969 C 33.195312 4.53125 32.851562 3.816406 32.371094 3.21875 C 31.84375 2.570312 31.164062 2.046875 30.421875 1.664062 C 29.613281 1.246094 28.75 1.027344 27.84375 0.945312 C 27.058594 0.875 26.277344 0.902344 25.503906 0.996094 C 26.3125 0.9375 27.136719 0.972656 27.933594 1.136719 C 28.339844 1.222656 28.742188 1.34375 29.125 1.5 C 29.507812 1.65625 29.886719 1.847656 30.226562 2.085938 C 30.835938 2.515625 31.371094 3.066406 31.742188 3.710938 C 32.113281 4.347656 32.3125 5.074219 32.296875 5.808594 C 32.292969 5.847656 32.234375 5.871094 32.214844 5.828125 C 32.183594 5.757812 32.152344 5.691406 32.113281 5.625 C 31.816406 5.078125 31.316406 4.679688 30.761719 4.402344 C 30.1875 4.117188 29.550781 3.953125 28.914062 3.882812 C 28.222656 3.800781 27.527344 3.835938 26.847656 3.976562 C 26.027344 4.148438 25.242188 4.460938 24.507812 4.851562 C 24.378906 4.921875 24.25 4.996094 24.121094 5.070312 C 24.691406 4.847656 25.289062 4.707031 25.894531 4.640625 C 26.523438 4.570312 27.164062 4.582031 27.789062 4.671875 C 28.40625 4.757812 29.011719 4.925781 29.582031 5.179688 C 30.128906 5.429688 30.640625 5.761719 31.070312 6.179688 C 31.105469 6.210938 31.058594 6.273438 31.019531 6.246094 C 30.929688 6.179688 30.839844 6.121094 30.746094 6.066406 C 30.398438 5.867188 30.011719 5.742188 29.609375 5.714844 C 29.226562 5.6875 28.84375 5.746094 28.480469 5.863281 C 27.710938 6.109375 27.027344 6.59375 26.457031 7.152344 C 26.175781 7.429688 25.914062 7.730469 25.683594 8.050781 C 25.445312 8.382812 25.238281 8.734375 25.035156 9.085938 C 24.585938 9.871094 24.183594 10.683594 23.726562 11.464844 C 23.285156 12.222656 22.785156 12.960938 22.148438 13.578125 C 22.117188 13.605469 22.0625 13.578125 22.078125 13.535156 C 22.195312 13.1875 22.328125 12.847656 22.460938 12.503906 C 22.6875 11.917969 22.921875 11.328125 23.089844 10.71875 C 23.183594 10.394531 23.253906 10.066406 23.300781 9.730469 C 23.015625 10.132812 22.683594 10.5 22.324219 10.84375 C 21.5 11.632812 20.542969 12.277344 19.582031 12.894531 C 18.617188 13.515625 17.617188 14.09375 16.734375 14.839844 C 15.902344 15.542969 15.167969 16.386719 14.730469 17.390625 C 14.269531 18.441406 14.1875 19.605469 14.375 20.730469 C 14.382812 20.777344 14.324219 20.804688 14.296875 20.761719 C 14.253906 20.699219 14.214844 20.632812 14.175781 20.570312 C 13.855469 20.042969 13.605469 19.480469 13.429688 18.894531 C 13.246094 18.296875 13.132812 17.679688 13.097656 17.054688 C 13.066406 16.441406 13.105469 15.816406 13.226562 15.210938 C 13.296875 14.878906 13.390625 14.550781 13.511719 14.230469 C 13.238281 14.644531 13.019531 15.097656 12.855469 15.566406 C 12.617188 16.242188 12.476562 16.945312 12.394531 17.652344 C 12.386719 17.6875 12.351562 17.707031 12.320312 17.683594 C 12.277344 17.644531 12.234375 17.601562 12.195312 17.5625 C 11.851562 17.191406 11.652344 16.710938 11.5 16.238281 C 11.421875 15.992188 11.359375 15.742188 11.300781 15.492188 C 11.246094 15.253906 11.183594 15.019531 11.148438 14.777344 C 11.074219 14.277344 11.09375 13.761719 11.199219 13.265625 C 11.199219 13.261719 11.199219 13.257812 11.199219 13.253906 C 10.546875 13.910156 9.789062 14.46875 8.898438 14.765625 C 8.632812 14.851562 8.355469 14.921875 8.078125 14.964844 C 8.785156 15.132812 9.554688 15.042969 10.21875 14.746094 C 10.230469 15.015625 10.257812 15.285156 10.296875 15.550781 C 10.46875 16.683594 10.988281 17.734375 11.707031 18.621094 C 11.832031 18.777344 11.964844 18.929688 12.101562 19.074219 C 12.105469 19.082031 12.109375 19.089844 12.109375 19.097656 C 12.34375 19.734375 12.628906 20.347656 12.941406 20.945312 C 13.566406 22.15625 14.285156 23.3125 14.898438 24.527344 C 15.078125 24.878906 15.234375 25.238281 15.433594 25.582031 C 15.644531 25.945312 15.875 26.296875 16.058594 26.675781 C 16.089844 26.742188 16.199219 26.660156 16.191406 26.601562 C 16.121094 26.230469 16.03125 25.863281 15.953125 25.496094 C 15.929688 25.222656 15.910156 24.953125 15.890625 24.679688 C 15.847656 24.050781 15.757812 23.433594 15.746094 22.804688 C 15.734375 22.148438 15.773438 21.492188 15.839844 20.839844 C 15.898438 20.289062 15.964844 19.734375 16.078125 19.1875 C 16.179688 18.710938 16.328125 18.242188 16.5625 17.8125 C 16.816406 17.34375 17.167969 16.925781 17.582031 16.585938 C 18.429688 15.878906 19.488281 15.507812 20.453125 14.996094 C 20.933594 14.742188 21.40625 14.449219 21.84375 14.113281 C 21.734375 14.289062 21.617188 14.457031 21.492188 14.621094 C 21.308594 14.863281 21.105469 15.082031 20.90625 15.3125 C 20.722656 15.527344 20.539062 15.742188 20.335938 15.9375 C 20.132812 16.132812 19.894531 16.347656 19.605469 16.394531 C 19.554688 16.402344 19.492188 16.488281 19.5625 16.515625 C 19.949219 16.652344 20.394531 16.484375 20.738281 16.308594 C 21.183594 16.082031 21.585938 15.777344 21.964844 15.453125 C 22.835938 14.703125 23.558594 13.777344 24.085938 12.761719 C 24.089844 12.753906 24.09375 12.742188 24.097656 12.734375 C 24.09375 12.757812 24.089844 12.785156 24.085938 12.808594 C 23.976562 13.34375 23.828125 13.871094 23.601562 14.367188 C 23.386719 14.847656 23.09375 15.28125 22.746094 15.679688 C 22.421875 16.046875 22.070312 16.394531 21.671875 16.6875 C 21.253906 16.992188 20.746094 17.277344 20.207031 17.246094 C 20.152344 17.246094 20.070312 17.34375 20.148438 17.367188 C 20.816406 17.5625 21.542969 17.429688 22.167969 17.160156 C 22.820312 16.882812 23.402344 16.464844 23.929688 16 C 24.46875 15.523438 24.949219 14.992188 25.347656 14.398438 C 25.761719 13.777344 26.09375 13.109375 26.390625 12.425781 C 26.664062 11.792969 26.914062 11.144531 27.160156 10.5 C 27.378906 9.933594 27.601562 9.359375 27.949219 8.855469 C 28.113281 8.621094 28.304688 8.402344 28.539062 8.230469 C 28.796875 8.039062 29.101562 7.910156 29.417969 7.847656 C 30.050781 7.71875 30.707031 7.875 31.238281 8.234375 C 31.820312 8.628906 32.214844 9.238281 32.464844 9.882812 C 32.714844 10.539062 32.785156 11.234375 32.785156 11.933594 C 32.785156 12.113281 32.785156 12.292969 32.789062 12.472656 C 32.789062 12.480469 32.792969 12.484375 32.796875 12.488281 C 32.753906 12.570312 32.875 12.582031 32.910156 12.519531 C 33.042969 12.304688 33.214844 12.109375 33.40625 11.945312 C 33.59375 11.777344 33.828125 11.609375 34.085938 11.574219 C 34.371094 11.535156 34.570312 11.746094 34.648438 11.996094 C 34.765625 12.359375 34.695312 12.765625 34.679688 13.136719 C 34.65625 13.609375 34.621094 14.085938 34.613281 14.5625 C 34.605469 15.015625 34.601562 15.46875 34.609375 15.921875 C 34.625 16.726562 34.699219 17.585938 35.113281 18.296875 C 35.148438 18.355469 35.183594 18.414062 35.222656 18.46875 Z M 35.222656 18.46875 "/>
</g>
<mask id="mask10">
  <g filter="url(#alpha)">
<rect x="0" y="0" width="50" height="60" style="fill:rgb(0%,0%,0%);fill-opacity:0.65098;stroke:none;"/>
  </g>
</mask>
<clipPath id="clip11">
  <rect x="0" y="0" width="50" height="60"/>
</clipPath>
<g id="surface35" clip-path="url(#clip11)">
<path style=" stroke:none;fill-rule:nonzero;fill:rgb(57.254905%,25.882354%,16.862746%);fill-opacity:1;" d="M 29.453125 29.964844 C 29.386719 29.925781 29.269531 29.984375 29.210938 30.011719 C 29.070312 30.078125 28.933594 30.136719 28.785156 30.1875 C 28.78125 30.1875 28.78125 30.1875 28.78125 30.1875 C 28.765625 30.191406 28.753906 30.195312 28.738281 30.195312 C 28.113281 30.285156 27.472656 30.332031 26.839844 30.351562 C 26.210938 30.367188 25.582031 30.382812 24.953125 30.386719 C 24.636719 30.386719 24.320312 30.394531 24.003906 30.386719 C 23.699219 30.378906 23.390625 30.359375 23.085938 30.34375 C 22.792969 30.328125 22.5 30.300781 22.207031 30.289062 C 21.992188 30.28125 21.722656 30.269531 21.550781 30.132812 C 21.550781 30.136719 21.550781 30.136719 21.546875 30.136719 C 21.492188 30.105469 21.386719 30.175781 21.433594 30.230469 C 21.566406 30.398438 21.816406 30.425781 22.027344 30.441406 C 22.296875 30.460938 22.566406 30.472656 22.835938 30.484375 C 23.527344 30.519531 24.214844 30.492188 24.90625 30.480469 C 25.601562 30.464844 26.300781 30.453125 26.996094 30.417969 C 27.671875 30.382812 28.359375 30.363281 29.023438 30.246094 C 29.136719 30.226562 29.253906 30.210938 29.359375 30.160156 C 29.414062 30.132812 29.542969 30.019531 29.453125 29.964844 Z M 29.453125 29.964844 "/>
</g>
<mask id="mask11">
  <g filter="url(#alpha)">
<rect x="0" y="0" width="50" height="60" style="fill:rgb(0%,0%,0%);fill-opacity:0.65098;stroke:none;"/>
  </g>
</mask>
<clipPath id="clip12">
  <rect x="0" y="0" width="50" height="60"/>
</clipPath>
<g id="surface38" clip-path="url(#clip12)">
<path style=" stroke:none;fill-rule:nonzero;fill:rgb(57.254905%,25.882354%,16.862746%);fill-opacity:1;" d="M 26.800781 31.664062 C 26.664062 31.660156 26.527344 31.679688 26.390625 31.699219 C 26.246094 31.71875 26.101562 31.742188 25.953125 31.753906 C 25.664062 31.785156 25.371094 31.785156 25.082031 31.777344 C 24.800781 31.765625 24.519531 31.75 24.242188 31.710938 C 23.976562 31.675781 23.699219 31.632812 23.445312 31.542969 C 23.429688 31.539062 23.398438 31.566406 23.417969 31.578125 C 23.527344 31.65625 23.632812 31.714844 23.765625 31.757812 C 23.890625 31.800781 24.023438 31.828125 24.15625 31.84375 C 24.433594 31.882812 24.71875 31.902344 25.003906 31.910156 C 25.300781 31.921875 25.605469 31.917969 25.898438 31.878906 C 26.042969 31.859375 26.1875 31.832031 26.328125 31.804688 C 26.484375 31.777344 26.640625 31.75 26.789062 31.714844 C 26.8125 31.707031 26.839844 31.667969 26.800781 31.664062 Z M 26.800781 31.664062 "/>
</g>
</defs>
<g id="surface1">
<path style=" stroke:none;fill-rule:nonzero;fill:rgb(93.725491%,69.803923%,56.862748%);fill-opacity:1;" d="M 14.289062 42.546875 C 14.414062 42.789062 14.570312 43.011719 14.726562 43.230469 C 15.390625 44.15625 16.226562 44.957031 17.113281 45.671875 C 18.730469 46.984375 20.679688 47.851562 22.734375 48.238281 C 23.757812 48.433594 24.820312 48.527344 25.863281 48.46875 C 26.867188 48.417969 27.859375 48.210938 28.804688 47.871094 C 29.761719 47.527344 30.664062 47.046875 31.488281 46.460938 C 32.316406 45.867188 33.023438 45.164062 33.683594 44.398438 C 34.382812 43.585938 35.050781 42.746094 35.613281 41.839844 C 35.652344 41.78125 35.683594 41.726562 35.71875 41.667969 C 34.347656 40.964844 30.945312 39.859375 30.222656 38.347656 C 29.5 36.828125 30.105469 28.714844 30.105469 28.714844 L 20.132812 28.714844 C 20.132812 28.714844 20.804688 37.472656 19.695312 38.574219 C 18.347656 39.902344 15.074219 41.355469 14.003906 41.890625 C 14.089844 42.113281 14.179688 42.335938 14.289062 42.546875 Z M 14.289062 42.546875 "/>
<use xlink:href="#surface5" mask="url(#mask0)"/>
<use xlink:href="#surface8" mask="url(#mask1)"/>
<path style=" stroke:none;fill-rule:nonzero;fill:rgb(76.862746%,77.64706%,78.431374%);fill-opacity:1;" d="M 49.25 59.09375 C 48.878906 57.289062 47.34375 47.511719 46.207031 45.984375 C 45 44.363281 35.488281 41.101562 31.660156 39.292969 C 31.703125 39.425781 31.738281 39.558594 31.769531 39.695312 C 31.90625 40.296875 31.9375 40.917969 31.882812 41.527344 C 31.824219 42.144531 31.683594 42.75 31.464844 43.332031 C 31.257812 43.886719 30.976562 44.421875 30.613281 44.894531 C 30.300781 45.304688 29.921875 45.65625 29.5 45.953125 C 29.058594 46.261719 28.578125 46.507812 28.074219 46.699219 C 27.550781 46.902344 27.007812 47.042969 26.453125 47.132812 C 26.128906 47.1875 25.804688 47.21875 25.476562 47.238281 L 25.476562 47.214844 C 25.304688 47.230469 25.132812 47.242188 24.960938 47.246094 C 24.929688 47.246094 24.894531 47.246094 24.859375 47.25 C 24.828125 47.246094 24.792969 47.246094 24.761719 47.246094 C 24.589844 47.242188 24.417969 47.230469 24.246094 47.214844 L 24.246094 47.238281 C 23.917969 47.21875 23.59375 47.1875 23.269531 47.132812 C 22.714844 47.042969 22.171875 46.902344 21.648438 46.699219 C 21.144531 46.507812 20.664062 46.261719 20.222656 45.953125 C 19.800781 45.65625 19.421875 45.304688 19.109375 44.894531 C 18.746094 44.421875 18.464844 43.886719 18.257812 43.332031 C 18.039062 42.75 17.898438 42.144531 17.839844 41.527344 C 17.785156 40.917969 17.816406 40.296875 17.953125 39.695312 C 17.984375 39.558594 18.019531 39.425781 18.0625 39.292969 C 14.234375 41.101562 5.40625 44.070312 4.199219 45.691406 C 3.140625 47.113281 1.324219 56.324219 0.75 59.09375 Z M 49.25 59.09375 "/>
<path style=" stroke:none;fill-rule:nonzero;fill:rgb(58.823532%,60.000002%,60.784316%);fill-opacity:1;" d="M 30.746094 38.695312 C 30.816406 39.617188 30.886719 42.5 29.269531 44.304688 C 28.824219 44.804688 28.269531 45.191406 27.628906 45.453125 C 26.863281 45.761719 25.949219 45.914062 24.90625 45.898438 C 22.925781 45.871094 21.433594 45.285156 20.472656 44.152344 C 18.996094 42.410156 19.058594 39.976562 19.144531 38.949219 C 19.144531 38.949219 19.164062 38.835938 19.160156 38.839844 C 18.46875 39.105469 17.777344 39.375 17.101562 39.679688 C 17.097656 41.25 17.359375 43.589844 18.914062 45.429688 C 20.269531 47.035156 22.277344 47.867188 24.878906 47.902344 C 24.933594 47.902344 24.988281 47.902344 25.046875 47.902344 C 27.511719 47.902344 29.445312 47.136719 30.792969 45.625 C 32.457031 43.761719 32.777344 41.363281 32.796875 39.769531 C 32.4375 39.492188 31.042969 38.898438 30.746094 38.695312 Z M 30.746094 38.695312 "/>
<path style=" stroke:none;fill-rule:nonzero;fill:rgb(76.862746%,77.64706%,78.431374%);fill-opacity:1;" d="M 11.058594 59.09375 C 11.054688 59.046875 11.054688 58.996094 11.054688 58.949219 C 11.042969 58.613281 11.035156 58.28125 11.027344 57.945312 C 11.011719 57.292969 10.984375 56.640625 11.007812 55.988281 C 11.03125 55.359375 11.082031 54.730469 11.105469 54.101562 C 11.125 53.566406 11.125 53.027344 11.058594 52.492188 C 10.984375 53.035156 10.890625 53.574219 10.804688 54.117188 C 10.628906 55.242188 10.507812 56.378906 10.496094 57.519531 C 10.492188 58.046875 10.507812 58.570312 10.53125 59.09375 Z M 11.058594 59.09375 "/>
<path style=" stroke:none;fill-rule:nonzero;fill:rgb(76.862746%,77.64706%,78.431374%);fill-opacity:1;" d="M 39.414062 59.09375 C 39.417969 59.046875 39.417969 58.996094 39.421875 58.949219 C 39.433594 58.613281 39.441406 58.28125 39.445312 57.945312 C 39.460938 57.292969 39.492188 56.640625 39.464844 55.988281 C 39.441406 55.359375 39.390625 54.730469 39.367188 54.101562 C 39.347656 53.566406 39.347656 53.027344 39.414062 52.492188 C 39.492188 53.035156 39.582031 53.574219 39.667969 54.117188 C 39.84375 55.242188 39.96875 56.378906 39.976562 57.519531 C 39.984375 58.046875 39.96875 58.570312 39.945312 59.09375 Z M 39.414062 59.09375 "/>
<path style=" stroke:none;fill-rule:nonzero;fill:rgb(93.725491%,69.803923%,56.862748%);fill-opacity:1;" d="M 38.222656 22.851562 C 37.855469 21.699219 36.558594 21.125 35.34375 21.566406 C 34.648438 21.820312 34.148438 22.453125 33.863281 23.070312 C 33.699219 23.433594 33.605469 23.824219 33.558594 24.214844 C 33.308594 24.910156 33.195312 25.675781 33.246094 26.40625 C 33.285156 26.917969 33.359375 27.863281 33.933594 28.140625 C 34.488281 28.410156 35.363281 27.957031 35.832031 27.6875 C 36.429688 27.34375 36.917969 26.863281 37.3125 26.332031 C 38.058594 25.332031 38.609375 24.074219 38.222656 22.851562 Z M 38.222656 22.851562 "/>
<use xlink:href="#surface11" mask="url(#mask2)"/>
<use xlink:href="#surface14" mask="url(#mask3)"/>
<path style=" stroke:none;fill-rule:nonzero;fill:rgb(93.725491%,69.803923%,56.862748%);fill-opacity:1;" d="M 13.324219 26.332031 C 13.71875 26.863281 14.210938 27.34375 14.804688 27.6875 C 15.273438 27.957031 16.148438 28.410156 16.703125 28.140625 C 17.277344 27.863281 17.351562 26.917969 17.390625 26.40625 C 17.441406 25.675781 17.328125 24.910156 17.078125 24.214844 C 17.03125 23.824219 16.9375 23.433594 16.773438 23.070312 C 16.492188 22.453125 15.988281 21.820312 15.292969 21.566406 C 14.078125 21.125 12.78125 21.699219 12.414062 22.851562 C 12.027344 24.074219 12.578125 25.332031 13.324219 26.332031 Z M 13.324219 26.332031 "/>
<use xlink:href="#surface17" mask="url(#mask4)"/>
<use xlink:href="#surface20" mask="url(#mask5)"/>
<path style=" stroke:none;fill-rule:nonzero;fill:rgb(93.725491%,69.803923%,56.862748%);fill-opacity:1;" d="M 35.574219 18.78125 C 35.757812 16.71875 35.875 14.648438 35.726562 12.574219 C 35.625 11.191406 35.347656 9.699219 34.296875 8.75 C 33.816406 8.316406 33.214844 8.035156 32.605469 7.792969 C 29.203125 6.453125 25.011719 6.140625 21.460938 7.125 C 19.742188 7.601562 18.144531 8.445312 16.714844 9.488281 C 16.148438 9.898438 15.628906 10.363281 15.257812 10.890625 C 15.183594 11.058594 15.121094 11.234375 15.070312 11.410156 C 15.011719 11.636719 14.996094 11.875 14.980469 12.105469 C 14.726562 15.898438 15.097656 19.699219 15.671875 23.449219 C 15.917969 25.058594 16.230469 26.652344 16.480469 28.265625 C 16.734375 29.878906 16.96875 32.007812 18.296875 33.136719 C 19.035156 33.765625 19.859375 34.28125 20.683594 34.792969 C 21.484375 35.292969 22.257812 35.859375 23.125 36.25 C 24.203125 36.742188 25.480469 36.882812 26.652344 36.570312 C 27.886719 36.242188 28.910156 35.453125 29.96875 34.792969 C 30.789062 34.28125 31.613281 33.765625 32.351562 33.136719 C 32.671875 32.863281 32.949219 32.5625 33.15625 32.195312 C 33.351562 31.84375 33.492188 31.464844 33.601562 31.078125 C 34.433594 28.082031 34.960938 25 35.265625 21.910156 C 35.367188 20.871094 35.480469 19.828125 35.574219 18.78125 Z M 35.574219 18.78125 "/>
<use xlink:href="#surface23" mask="url(#mask6)"/>
<use xlink:href="#surface26" mask="url(#mask7)"/>
<path style=" stroke:none;fill-rule:nonzero;fill:rgb(100%,100%,100%);fill-opacity:1;" d="M 33.164062 22.410156 C 32.902344 22.039062 32.566406 21.707031 32.164062 21.476562 C 31.703125 21.210938 31.179688 21.070312 30.644531 21.03125 C 30.601562 21.027344 30.558594 21.027344 30.511719 21.027344 C 30.246094 21.050781 29.988281 21.101562 29.746094 21.171875 C 29.425781 21.265625 29.140625 21.414062 28.902344 21.601562 C 28.574219 21.898438 28.34375 22.253906 28.199219 22.644531 C 28.054688 23.027344 27.984375 23.429688 27.941406 23.835938 C 28.238281 24.003906 28.570312 24.125 28.90625 24.214844 C 29.351562 24.332031 29.808594 24.402344 30.265625 24.4375 C 30.464844 24.457031 30.664062 24.464844 30.863281 24.46875 C 31.121094 24.445312 31.378906 24.40625 31.628906 24.347656 C 31.761719 24.316406 31.894531 24.28125 32.023438 24.242188 C 32.554688 23.964844 33.050781 23.617188 33.492188 23.21875 C 33.496094 23.136719 33.5 23.058594 33.5 22.976562 C 33.40625 22.78125 33.292969 22.589844 33.164062 22.410156 Z M 33.164062 22.410156 "/>
<path style=" stroke:none;fill-rule:nonzero;fill:rgb(66.666669%,33.725491%,16.862746%);fill-opacity:1;" d="M 32.296875 22.613281 C 32.296875 21.722656 31.550781 21 30.628906 21 C 29.707031 21 28.960938 21.722656 28.960938 22.613281 C 28.960938 23.503906 29.707031 24.222656 30.628906 24.222656 C 31.550781 24.222656 32.296875 23.503906 32.296875 22.613281 Z M 32.296875 22.613281 "/>
<path style=" stroke:none;fill-rule:nonzero;fill:rgb(29.019609%,10.196079%,1.960784%);fill-opacity:1;" d="M 31.871094 22.613281 C 31.871094 21.949219 31.316406 21.410156 30.628906 21.410156 C 29.945312 21.410156 29.386719 21.949219 29.386719 22.613281 C 29.386719 23.273438 29.945312 23.8125 30.628906 23.8125 C 31.316406 23.8125 31.871094 23.273438 31.871094 22.613281 Z M 31.871094 22.613281 "/>
<path style=" stroke:none;fill-rule:nonzero;fill:rgb(100%,100%,100%);fill-opacity:1;" d="M 30.621094 21.929688 C 30.5625 22.1875 30.300781 22.351562 30.035156 22.292969 C 29.769531 22.238281 29.601562 21.984375 29.660156 21.726562 C 29.71875 21.46875 29.980469 21.308594 30.246094 21.363281 C 30.511719 21.421875 30.679688 21.675781 30.621094 21.929688 Z M 30.621094 21.929688 "/>
<path style=" stroke:none;fill-rule:nonzero;fill:rgb(100%,100%,100%);fill-opacity:1;" d="M 29.605469 22.433594 C 29.589844 22.511719 29.511719 22.558594 29.433594 22.542969 C 29.355469 22.527344 29.304688 22.449219 29.320312 22.375 C 29.339844 22.300781 29.417969 22.25 29.496094 22.269531 C 29.574219 22.285156 29.621094 22.359375 29.605469 22.433594 Z M 29.605469 22.433594 "/>
<path style=" stroke:none;fill-rule:nonzero;fill:rgb(61.960787%,46.666667%,38.039216%);fill-opacity:1;" d="M 32.851562 23.714844 C 32.660156 23.871094 32.421875 23.96875 32.1875 24.0625 C 31.917969 24.175781 31.636719 24.269531 31.347656 24.324219 C 30.730469 24.445312 30.109375 24.390625 29.492188 24.292969 C 29.160156 24.238281 28.808594 24.179688 28.488281 24.070312 C 28.480469 24.066406 28.472656 24.078125 28.476562 24.082031 C 28.738281 24.234375 29.03125 24.308594 29.324219 24.378906 C 29.652344 24.457031 29.996094 24.496094 30.335938 24.523438 C 30.640625 24.546875 30.953125 24.53125 31.253906 24.480469 C 31.5625 24.425781 31.875 24.34375 32.15625 24.214844 C 32.292969 24.152344 32.429688 24.082031 32.558594 24.007812 C 32.675781 23.9375 32.808594 23.847656 32.878906 23.730469 C 32.890625 23.714844 32.867188 23.703125 32.851562 23.714844 Z M 32.851562 23.714844 "/>
<path style=" stroke:none;fill-rule:nonzero;fill:rgb(21.176471%,5.490196%,0%);fill-opacity:1;" d="M 33.203125 22.0625 C 33.117188 21.957031 33.023438 21.859375 32.929688 21.769531 C 32.527344 21.386719 32.039062 21.101562 31.496094 20.960938 C 30.949219 20.816406 30.34375 20.8125 29.800781 20.96875 C 29.222656 21.128906 28.699219 21.476562 28.363281 21.960938 C 28.320312 22.015625 28.285156 22.074219 28.25 22.136719 C 28.027344 22.558594 27.921875 23.035156 27.972656 23.503906 C 27.992188 23.425781 28.015625 23.34375 28.039062 23.261719 C 28.0625 23.164062 28.085938 23.066406 28.117188 22.964844 C 28.203125 22.6875 28.296875 22.417969 28.453125 22.167969 C 28.738281 21.71875 29.183594 21.386719 29.695312 21.214844 C 30.691406 20.875 31.824219 21.15625 32.605469 21.820312 C 32.835938 22.015625 33.042969 22.246094 33.214844 22.488281 C 33.300781 22.609375 33.382812 22.734375 33.453125 22.859375 C 33.40625 22.585938 33.324219 22.3125 33.203125 22.0625 Z M 33.203125 22.0625 "/>
<path style=" stroke:none;fill-rule:nonzero;fill:rgb(100%,100%,100%);fill-opacity:1;" d="M 17.976562 22.460938 C 18.238281 22.089844 18.574219 21.761719 18.976562 21.527344 C 19.4375 21.261719 19.964844 21.121094 20.496094 21.085938 C 20.539062 21.082031 20.582031 21.078125 20.628906 21.078125 C 20.894531 21.105469 21.152344 21.152344 21.394531 21.222656 C 21.714844 21.316406 22 21.464844 22.238281 21.652344 C 22.566406 21.949219 22.796875 22.308594 22.941406 22.695312 C 23.085938 23.078125 23.15625 23.480469 23.199219 23.886719 C 22.902344 24.058594 22.570312 24.179688 22.234375 24.269531 C 21.789062 24.386719 21.332031 24.457031 20.875 24.492188 C 20.675781 24.507812 20.476562 24.519531 20.277344 24.519531 C 20.019531 24.5 19.761719 24.457031 19.511719 24.398438 C 19.378906 24.371094 19.246094 24.332031 19.117188 24.292969 C 18.585938 24.015625 18.089844 23.667969 17.648438 23.269531 C 17.644531 23.191406 17.640625 23.109375 17.640625 23.03125 C 17.734375 22.832031 17.847656 22.640625 17.976562 22.460938 Z M 17.976562 22.460938 "/>
<path style=" stroke:none;fill-rule:nonzero;fill:rgb(66.666669%,33.725491%,16.862746%);fill-opacity:1;" d="M 22.242188 22.671875 C 22.242188 21.785156 21.5 21.066406 20.585938 21.066406 C 19.667969 21.066406 18.925781 21.785156 18.925781 22.671875 C 18.925781 23.558594 19.667969 24.277344 20.585938 24.277344 C 21.5 24.277344 22.242188 23.558594 22.242188 22.671875 Z M 22.242188 22.671875 "/>
<path style=" stroke:none;fill-rule:nonzero;fill:rgb(29.019609%,10.196079%,1.960784%);fill-opacity:1;" d="M 21.789062 22.929688 C 21.644531 23.574219 20.984375 23.980469 20.320312 23.839844 C 19.652344 23.695312 19.230469 23.058594 19.378906 22.414062 C 19.523438 21.769531 20.183594 21.363281 20.851562 21.503906 C 21.515625 21.644531 21.9375 22.285156 21.789062 22.929688 Z M 21.789062 22.929688 "/>
<path style=" stroke:none;fill-rule:nonzero;fill:rgb(100%,100%,100%);fill-opacity:1;" d="M 20.574219 21.992188 C 20.515625 22.25 20.257812 22.410156 19.992188 22.355469 C 19.726562 22.296875 19.5625 22.046875 19.621094 21.789062 C 19.675781 21.535156 19.9375 21.375 20.203125 21.429688 C 20.464844 21.484375 20.632812 21.738281 20.574219 21.992188 Z M 20.574219 21.992188 "/>
<path style=" stroke:none;fill-rule:nonzero;fill:rgb(100%,100%,100%);fill-opacity:1;" d="M 19.566406 22.496094 C 19.546875 22.570312 19.46875 22.617188 19.390625 22.601562 C 19.316406 22.585938 19.265625 22.511719 19.28125 22.4375 C 19.300781 22.359375 19.375 22.3125 19.453125 22.328125 C 19.53125 22.347656 19.582031 22.421875 19.566406 22.496094 Z M 19.566406 22.496094 "/>
<path style=" stroke:none;fill-rule:nonzero;fill:rgb(61.960787%,46.666667%,38.039216%);fill-opacity:1;" d="M 18.289062 23.765625 C 18.484375 23.925781 18.71875 24.019531 18.953125 24.117188 C 19.222656 24.226562 19.503906 24.320312 19.792969 24.378906 C 20.410156 24.5 21.03125 24.445312 21.648438 24.347656 C 21.984375 24.292969 22.332031 24.234375 22.652344 24.121094 C 22.660156 24.121094 22.667969 24.128906 22.664062 24.136719 C 22.402344 24.289062 22.109375 24.359375 21.820312 24.429688 C 21.488281 24.511719 21.144531 24.550781 20.804688 24.578125 C 20.5 24.601562 20.1875 24.585938 19.886719 24.53125 C 19.578125 24.480469 19.265625 24.398438 18.984375 24.265625 C 18.847656 24.203125 18.710938 24.136719 18.582031 24.058594 C 18.464844 23.992188 18.332031 23.898438 18.261719 23.785156 C 18.25 23.765625 18.273438 23.753906 18.289062 23.765625 Z M 18.289062 23.765625 "/>
<path style=" stroke:none;fill-rule:nonzero;fill:rgb(21.176471%,5.490196%,0%);fill-opacity:1;" d="M 17.9375 22.113281 C 18.027344 22.011719 18.117188 21.910156 18.214844 21.820312 C 18.613281 21.441406 19.101562 21.15625 19.644531 21.011719 C 20.191406 20.871094 20.796875 20.867188 21.34375 21.019531 C 21.917969 21.183594 22.441406 21.53125 22.777344 22.011719 C 22.820312 22.070312 22.855469 22.128906 22.890625 22.1875 C 23.113281 22.609375 23.21875 23.085938 23.171875 23.558594 C 23.148438 23.476562 23.125 23.394531 23.101562 23.316406 C 23.078125 23.214844 23.054688 23.117188 23.023438 23.019531 C 22.941406 22.742188 22.84375 22.46875 22.6875 22.222656 C 22.402344 21.773438 21.957031 21.441406 21.445312 21.265625 C 20.449219 20.925781 19.316406 21.210938 18.535156 21.871094 C 18.304688 22.070312 18.097656 22.296875 17.925781 22.542969 C 17.839844 22.660156 17.757812 22.785156 17.6875 22.914062 C 17.734375 22.640625 17.816406 22.367188 17.9375 22.113281 Z M 17.9375 22.113281 "/>
<path style=" stroke:none;fill-rule:nonzero;fill:rgb(13.333334%,13.725491%,14.901961%);fill-opacity:1;" d="M 34.332031 19.972656 C 34.167969 19.628906 33.984375 19.308594 33.726562 19.085938 C 33.304688 18.726562 32.789062 18.582031 32.300781 18.503906 C 31.800781 18.425781 31.292969 18.417969 30.789062 18.445312 C 30.140625 18.480469 29.492188 18.554688 28.851562 18.6875 C 28.328125 18.792969 27.8125 18.933594 27.304688 19.121094 C 27.375 19.386719 27.464844 19.652344 27.582031 19.894531 C 27.605469 19.921875 27.632812 19.949219 27.65625 19.972656 C 27.710938 20.027344 27.765625 20.074219 27.820312 20.121094 C 28.117188 20.199219 28.421875 20.214844 28.722656 20.199219 C 29.222656 20.171875 29.71875 20.058594 30.210938 19.945312 C 30.4375 19.894531 30.664062 19.839844 30.890625 19.796875 C 31.160156 19.746094 31.433594 19.707031 31.707031 19.667969 C 32.007812 19.625 32.3125 19.589844 32.613281 19.585938 C 32.894531 19.585938 33.183594 19.597656 33.453125 19.691406 C 33.765625 19.800781 34.050781 20.003906 34.339844 20.183594 C 34.363281 20.160156 34.382812 20.125 34.371094 20.09375 C 34.355469 20.054688 34.34375 20.011719 34.332031 19.972656 Z M 34.332031 19.972656 "/>
<path style=" stroke:none;fill-rule:nonzero;fill:rgb(13.333334%,13.725491%,14.901961%);fill-opacity:1;" d="M 16.664062 19.972656 C 16.824219 19.628906 17.011719 19.308594 17.269531 19.085938 C 17.6875 18.726562 18.203125 18.582031 18.691406 18.503906 C 19.191406 18.425781 19.699219 18.417969 20.203125 18.445312 C 20.851562 18.480469 21.5 18.554688 22.144531 18.6875 C 22.664062 18.792969 23.179688 18.933594 23.6875 19.121094 C 23.617188 19.386719 23.527344 19.652344 23.414062 19.894531 C 23.386719 19.921875 23.363281 19.949219 23.335938 19.972656 C 23.28125 20.027344 23.226562 20.074219 23.171875 20.121094 C 22.875 20.199219 22.570312 20.214844 22.269531 20.199219 C 21.769531 20.171875 21.273438 20.058594 20.78125 19.945312 C 20.554688 19.894531 20.332031 19.839844 20.105469 19.796875 C 19.832031 19.746094 19.558594 19.707031 19.289062 19.667969 C 18.984375 19.625 18.683594 19.589844 18.378906 19.585938 C 18.097656 19.585938 17.808594 19.597656 17.539062 19.691406 C 17.226562 19.800781 16.945312 20.003906 16.652344 20.183594 C 16.628906 20.160156 16.613281 20.125 16.625 20.09375 C 16.636719 20.054688 16.652344 20.011719 16.664062 19.972656 Z M 16.664062 19.972656 "/>
<use xlink:href="#surface29" mask="url(#mask8)"/>
<path style=" stroke:none;fill-rule:nonzero;fill:rgb(40.392157%,17.647059%,56.862748%);fill-opacity:1;" d="M 14.960938 9.355469 C 15.476562 9.351562 15.992188 9.28125 16.503906 9.199219 C 17.105469 9.105469 17.703125 8.972656 18.28125 8.78125 C 18.921875 8.5625 19.539062 8.269531 20.078125 7.863281 C 20.101562 7.84375 20.082031 7.816406 20.058594 7.832031 C 19.097656 8.535156 17.90625 8.871094 16.746094 9.070312 C 15.75 9.238281 14.722656 9.347656 13.722656 9.140625 C 13.21875 9.039062 12.683594 8.855469 12.332031 8.46875 C 12.292969 8.425781 12.195312 8.492188 12.234375 8.539062 C 12.367188 8.699219 12.464844 8.882812 12.5625 9.066406 C 12.65625 9.242188 12.761719 9.410156 12.890625 9.5625 C 13.140625 9.855469 13.457031 10.082031 13.796875 10.257812 C 14.546875 10.644531 15.375 10.808594 16.21875 10.816406 C 16.386719 10.816406 16.550781 10.8125 16.714844 10.804688 C 16.3125 10.921875 15.890625 10.988281 15.476562 11.042969 C 15.070312 11.09375 14.664062 11.140625 14.253906 11.132812 C 13.859375 11.128906 13.476562 11.070312 13.105469 10.953125 C 12.710938 10.832031 12.335938 10.667969 11.949219 10.53125 C 11.910156 10.515625 11.859375 10.554688 11.855469 10.59375 C 11.796875 11.144531 11.9375 11.703125 12.152344 12.207031 C 12.359375 12.691406 12.640625 13.164062 13 13.554688 C 13.648438 14.261719 14.570312 14.652344 15.527344 14.6875 C 15.765625 14.695312 16.003906 14.679688 16.242188 14.648438 C 16.140625 14.695312 16.042969 14.734375 15.945312 14.773438 C 15.503906 14.957031 15.054688 15.128906 14.585938 15.230469 C 14.289062 15.296875 13.992188 15.328125 13.691406 15.332031 C 13.65625 15.332031 13.597656 15.367188 13.613281 15.410156 C 13.742188 15.722656 14.078125 15.894531 14.386719 15.992188 C 14.71875 16.09375 15.070312 16.140625 15.414062 16.144531 C 15.921875 16.148438 16.425781 16.027344 16.90625 15.863281 C 17.394531 15.691406 17.851562 15.476562 18.257812 15.15625 C 18.683594 14.820312 19.050781 14.425781 19.472656 14.089844 C 19.507812 14.058594 19.480469 14.015625 19.441406 14.042969 C 19.0625 14.308594 18.738281 14.636719 18.390625 14.933594 C 18.214844 15.085938 18.03125 15.230469 17.832031 15.351562 C 17.621094 15.484375 17.390625 15.582031 17.15625 15.675781 C 16.664062 15.871094 16.140625 16.023438 15.605469 16.046875 C 15.277344 16.0625 14.941406 16.027344 14.621094 15.949219 C 14.300781 15.871094 13.929688 15.730469 13.765625 15.433594 C 14.277344 15.414062 14.78125 15.296875 15.261719 15.121094 C 15.484375 15.042969 15.703125 14.953125 15.917969 14.863281 C 16.097656 14.789062 16.273438 14.710938 16.4375 14.613281 C 16.675781 14.570312 16.90625 14.503906 17.128906 14.417969 C 17.179688 14.398438 17.171875 14.335938 17.113281 14.351562 C 16.960938 14.402344 16.808594 14.445312 16.652344 14.480469 C 16.792969 14.378906 16.914062 14.257812 17 14.105469 C 17.015625 14.074219 16.972656 14.074219 16.957031 14.09375 C 16.84375 14.269531 16.683594 14.402344 16.503906 14.507812 C 15.792969 14.640625 15.050781 14.605469 14.367188 14.34375 C 13.933594 14.179688 13.53125 13.921875 13.203125 13.59375 C 12.839844 13.234375 12.558594 12.789062 12.339844 12.335938 C 12.089844 11.816406 11.925781 11.242188 11.96875 10.664062 C 12.296875 10.785156 12.617188 10.921875 12.949219 11.03125 C 13.324219 11.15625 13.710938 11.226562 14.109375 11.242188 C 14.519531 11.253906 14.929688 11.214844 15.339844 11.160156 C 15.726562 11.109375 16.117188 11.054688 16.5 10.953125 C 16.664062 10.90625 16.824219 10.851562 16.980469 10.789062 C 17.207031 10.773438 17.433594 10.753906 17.660156 10.726562 C 17.695312 10.722656 17.726562 10.648438 17.671875 10.652344 C 17.527344 10.660156 17.378906 10.667969 17.234375 10.675781 C 17.371094 10.609375 17.503906 10.535156 17.632812 10.453125 C 17.65625 10.4375 17.636719 10.417969 17.617188 10.429688 C 17.441406 10.53125 17.257812 10.617188 17.070312 10.6875 C 16.449219 10.71875 15.828125 10.738281 15.210938 10.625 C 14.796875 10.550781 14.390625 10.421875 14.007812 10.238281 C 13.660156 10.074219 13.328125 9.867188 13.0625 9.585938 C 12.914062 9.429688 12.792969 9.25 12.6875 9.0625 C 12.640625 8.980469 12.597656 8.894531 12.554688 8.8125 C 12.824219 8.996094 13.136719 9.113281 13.453125 9.195312 C 13.945312 9.316406 14.457031 9.359375 14.960938 9.355469 Z M 14.960938 9.355469 "/>
<path style=" stroke:none;fill-rule:nonzero;fill:rgb(13.333334%,13.725491%,14.901961%);fill-opacity:1;" d="M 35.886719 12.132812 C 35.835938 11.769531 35.734375 11.417969 35.613281 11.070312 C 35.402344 10.460938 35.121094 9.875 34.78125 9.324219 C 34.433594 8.765625 34.019531 8.242188 33.53125 7.792969 C 33.066406 7.359375 32.527344 6.996094 31.929688 6.757812 C 31.339844 6.519531 30.683594 6.410156 30.046875 6.433594 C 29.4375 6.457031 28.839844 6.605469 28.296875 6.875 C 27.75 7.148438 27.265625 7.542969 26.882812 8.019531 C 26.484375 8.515625 26.222656 9.078125 26.011719 9.671875 C 25.898438 9.992188 25.800781 10.316406 25.734375 10.648438 C 25.671875 10.96875 25.632812 11.296875 25.671875 11.621094 C 25.679688 11.695312 25.691406 11.765625 25.710938 11.835938 C 25.683594 11.839844 25.65625 11.886719 25.695312 11.890625 C 25.707031 11.890625 25.71875 11.890625 25.726562 11.890625 C 25.742188 11.941406 25.757812 11.988281 25.777344 12.035156 C 25.808594 12.113281 25.953125 12.042969 25.921875 11.972656 C 25.910156 11.9375 25.894531 11.902344 25.882812 11.863281 C 25.933594 11.847656 25.984375 11.828125 26.03125 11.808594 C 26.171875 11.746094 26.304688 11.675781 26.441406 11.605469 C 26.585938 11.53125 26.726562 11.484375 26.882812 11.4375 C 27.09375 11.378906 27.304688 11.320312 27.519531 11.28125 C 27.9375 11.199219 28.371094 11.195312 28.796875 11.214844 C 29.207031 11.230469 29.613281 11.28125 30.011719 11.378906 C 30.769531 11.5625 31.5 11.894531 32.164062 12.296875 C 32.816406 12.6875 33.421875 13.164062 33.949219 13.710938 C 34.210938 13.984375 34.449219 14.277344 34.644531 14.601562 C 34.839844 14.914062 34.996094 15.25 35.152344 15.582031 C 35.191406 15.667969 35.234375 15.753906 35.273438 15.839844 C 35.296875 15.890625 35.386719 15.835938 35.394531 15.800781 C 35.582031 14.996094 35.820312 14.199219 35.902344 13.371094 C 35.941406 12.960938 35.945312 12.542969 35.886719 12.132812 Z M 35.886719 12.132812 "/>
<path style=" stroke:none;fill-rule:nonzero;fill:rgb(25.882354%,26.274511%,27.450982%);fill-opacity:1;" d="M 40.929688 10.554688 C 40.65625 10.1875 40.292969 9.898438 39.914062 9.652344 C 40.128906 9.675781 40.347656 9.671875 40.5625 9.644531 C 40.886719 9.605469 41.238281 9.515625 41.488281 9.296875 C 41.613281 9.1875 41.695312 9.039062 41.714844 8.875 C 41.722656 8.820312 41.648438 8.824219 41.621094 8.847656 C 41.375 9.027344 41.097656 9.160156 40.785156 9.15625 C 40.503906 9.152344 40.242188 9.042969 40.007812 8.894531 C 39.457031 8.546875 39.039062 8.011719 38.644531 7.503906 C 38.457031 7.261719 38.269531 7.015625 38.074219 6.777344 C 37.863281 6.519531 37.625 6.289062 37.359375 6.089844 C 36.660156 5.5625 35.800781 5.195312 34.925781 5.101562 C 34.542969 5.058594 34.160156 5.085938 33.785156 5.160156 C 33.617188 5.191406 33.445312 5.234375 33.277344 5.292969 C 33.195312 4.53125 32.851562 3.816406 32.371094 3.21875 C 31.84375 2.570312 31.164062 2.046875 30.421875 1.664062 C 29.613281 1.246094 28.75 1.027344 27.84375 0.945312 C 25.722656 0.757812 23.613281 1.265625 21.621094 1.9375 C 20.59375 2.28125 19.585938 2.675781 18.574219 3.066406 C 18.089844 3.253906 17.601562 3.441406 17.113281 3.625 C 16.855469 3.71875 16.601562 3.808594 16.335938 3.878906 C 15.765625 4.027344 15.167969 4.128906 14.574219 4.113281 C 14.085938 4.101562 13.46875 4.003906 13.222656 3.527344 C 13.164062 3.414062 13.136719 3.285156 13.125 3.160156 C 13.121094 3.085938 13.023438 3.109375 12.996094 3.15625 C 12.757812 3.582031 12.773438 4.0625 12.988281 4.492188 C 13.167969 4.847656 13.453125 5.128906 13.796875 5.328125 C 13.574219 5.429688 13.359375 5.539062 13.148438 5.652344 C 12.4375 6.035156 11.773438 6.492188 11.171875 7.023438 C 10.621094 7.511719 10.128906 8.066406 9.71875 8.675781 C 9.304688 9.289062 8.972656 9.964844 8.785156 10.679688 C 8.601562 11.382812 8.570312 12.121094 8.746094 12.832031 C 8.769531 12.921875 8.792969 13.011719 8.824219 13.101562 C 8.851562 13.179688 8.964844 13.113281 8.96875 13.054688 C 9.019531 12.550781 9.214844 12.066406 9.46875 11.632812 C 9.734375 11.183594 10.070312 10.777344 10.464844 10.4375 C 10.554688 10.359375 10.648438 10.28125 10.746094 10.210938 C 10.683594 10.34375 10.621094 10.480469 10.566406 10.617188 C 10.386719 11.027344 10.183594 11.421875 9.96875 11.8125 C 9.734375 12.242188 9.484375 12.65625 9.207031 13.0625 C 9 13.367188 8.789062 13.671875 8.539062 13.945312 C 8.257812 14.25 7.921875 14.519531 7.507812 14.613281 C 7.46875 14.621094 7.386719 14.703125 7.449219 14.734375 C 8.304688 15.167969 9.347656 15.132812 10.21875 14.742188 C 10.230469 15.015625 10.253906 15.285156 10.296875 15.550781 C 10.46875 16.683594 10.988281 17.730469 11.707031 18.621094 C 11.832031 18.777344 11.964844 18.929688 12.101562 19.074219 C 12.105469 19.082031 12.109375 19.089844 12.109375 19.097656 C 12.34375 19.734375 12.628906 20.347656 12.941406 20.945312 C 13.566406 22.15625 14.285156 23.3125 14.898438 24.527344 C 15.078125 24.878906 15.234375 25.238281 15.433594 25.578125 C 15.644531 25.945312 15.875 26.296875 16.058594 26.675781 C 16.089844 26.742188 16.199219 26.65625 16.191406 26.601562 C 16.121094 26.230469 16.03125 25.863281 15.953125 25.496094 C 15.929688 25.222656 15.910156 24.949219 15.890625 24.675781 C 15.847656 24.050781 15.757812 23.429688 15.746094 22.804688 C 15.734375 22.148438 15.773438 21.492188 15.839844 20.839844 C 15.898438 20.289062 15.964844 19.730469 16.078125 19.1875 C 16.179688 18.710938 16.328125 18.242188 16.5625 17.808594 C 16.816406 17.34375 17.167969 16.925781 17.582031 16.585938 C 18.429688 15.878906 19.488281 15.503906 20.453125 14.992188 C 20.933594 14.738281 21.40625 14.445312 21.84375 14.113281 C 21.734375 14.285156 21.617188 14.457031 21.492188 14.621094 C 21.308594 14.859375 21.105469 15.082031 20.90625 15.3125 C 20.722656 15.523438 20.539062 15.738281 20.335938 15.9375 C 20.132812 16.132812 19.894531 16.347656 19.605469 16.394531 C 19.554688 16.402344 19.492188 16.488281 19.5625 16.515625 C 19.949219 16.652344 20.394531 16.484375 20.738281 16.308594 C 21.183594 16.078125 21.585938 15.773438 21.964844 15.449219 C 22.835938 14.703125 23.558594 13.773438 24.085938 12.761719 C 24.089844 12.75 24.09375 12.742188 24.097656 12.734375 C 24.09375 12.757812 24.089844 12.785156 24.085938 12.808594 C 23.976562 13.34375 23.828125 13.867188 23.601562 14.367188 C 23.386719 14.84375 23.09375 15.28125 22.746094 15.679688 C 22.421875 16.046875 22.070312 16.394531 21.671875 16.683594 C 21.253906 16.992188 20.746094 17.277344 20.207031 17.246094 C 20.152344 17.242188 20.070312 17.34375 20.148438 17.363281 C 20.816406 17.5625 21.539062 17.425781 22.167969 17.160156 C 22.820312 16.882812 23.402344 16.464844 23.929688 16 C 24.46875 15.523438 24.949219 14.992188 25.347656 14.398438 C 25.761719 13.777344 26.09375 13.109375 26.390625 12.425781 C 26.664062 11.789062 26.914062 11.144531 27.160156 10.496094 C 27.375 9.929688 27.601562 9.359375 27.949219 8.855469 C 28.113281 8.621094 28.304688 8.402344 28.539062 8.230469 C 28.796875 8.039062 29.101562 7.910156 29.417969 7.847656 C 30.050781 7.71875 30.707031 7.875 31.238281 8.234375 C 31.820312 8.628906 32.214844 9.238281 32.464844 9.882812 C 32.714844 10.539062 32.785156 11.234375 32.785156 11.929688 C 32.785156 12.113281 32.785156 12.292969 32.789062 12.472656 C 32.789062 12.480469 32.792969 12.484375 32.796875 12.488281 C 32.753906 12.570312 32.875 12.578125 32.910156 12.519531 C 33.042969 12.304688 33.214844 12.109375 33.40625 11.945312 C 33.59375 11.777344 33.828125 11.609375 34.085938 11.574219 C 34.367188 11.53125 34.570312 11.746094 34.648438 11.996094 C 34.761719 12.359375 34.695312 12.765625 34.679688 13.136719 C 34.65625 13.609375 34.621094 14.085938 34.613281 14.558594 C 34.605469 15.011719 34.601562 15.46875 34.609375 15.921875 C 34.625 16.726562 34.699219 17.585938 35.113281 18.296875 C 35.148438 18.355469 35.183594 18.414062 35.222656 18.46875 C 35.21875 18.59375 35.207031 18.71875 35.207031 18.847656 C 35.199219 19.089844 35.214844 19.335938 35.21875 19.578125 C 35.21875 19.824219 35.214844 20.070312 35.207031 20.316406 C 35.171875 21.300781 35.101562 22.289062 35.019531 23.269531 C 34.976562 23.808594 34.917969 24.339844 34.824219 24.871094 C 34.816406 24.925781 34.894531 24.921875 34.921875 24.898438 C 35.105469 24.753906 35.191406 24.53125 35.328125 24.351562 C 35.507812 24.121094 35.691406 23.898438 35.863281 23.664062 C 36.203125 23.1875 36.480469 22.660156 36.761719 22.148438 C 37.046875 21.628906 37.339844 21.113281 37.609375 20.582031 C 37.878906 20.050781 38.136719 19.511719 38.402344 18.976562 C 38.472656 18.835938 38.554688 18.703125 38.636719 18.566406 C 39.167969 17.925781 39.671875 17.25 40.058594 16.519531 C 40.445312 15.792969 40.710938 14.992188 40.65625 14.167969 C 40.632812 13.757812 40.53125 13.347656 40.375 12.96875 C 40.5625 13.171875 40.6875 13.4375 40.785156 13.695312 C 40.859375 13.886719 40.882812 14.078125 40.878906 14.28125 C 40.878906 14.464844 40.863281 14.652344 40.902344 14.835938 C 40.914062 14.902344 41.003906 14.84375 41.019531 14.8125 C 41.410156 13.914062 41.699219 12.925781 41.523438 11.941406 C 41.4375 11.445312 41.230469 10.957031 40.929688 10.554688 Z M 40.929688 10.554688 "/>
<use xlink:href="#surface32" mask="url(#mask9)"/>
<use xlink:href="#surface35" mask="url(#mask10)"/>
<use xlink:href="#surface38" mask="url(#mask11)"/>
</g>
</svg>
