<?xml version="1.0" encoding="UTF-8"?>
<svg xmlns="http://www.w3.org/2000/svg" xmlns:xlink="http://www.w3.org/1999/xlink" width="52px" height="60px" viewBox="0 0 52 60" version="1.1">
<defs>
<filter id="alpha" filterUnits="objectBoundingBox" x="0%" y="0%" width="100%" height="100%">
  <feColorMatrix type="matrix" in="SourceGraphic" values="0 0 0 0 1 0 0 0 0 1 0 0 0 0 1 0 0 0 1 0"/>
</filter>
<mask id="mask0">
  <g filter="url(#alpha)">
<rect x="0" y="0" width="52" height="60" style="fill:rgb(0%,0%,0%);fill-opacity:0.6;stroke:none;"/>
  </g>
</mask>
<clipPath id="clip1">
  <rect x="0" y="0" width="52" height="60"/>
</clipPath>
<g id="surface5" clip-path="url(#clip1)">
<path style=" stroke:none;fill-rule:nonzero;fill:rgb(82.745099%,57.254905%,43.137255%);fill-opacity:1;" d="M 19.167969 36.539062 C 19.167969 36.539062 19.492188 38.050781 19.683594 40.160156 C 21.519531 41.171875 23.675781 41.945312 26 41.972656 C 28.328125 41.945312 30.480469 41.171875 32.316406 40.160156 C 32.507812 38.050781 32.832031 36.539062 32.832031 36.539062 Z M 19.167969 36.539062 "/>
</g>
<mask id="mask1">
  <g filter="url(#alpha)">
<rect x="0" y="0" width="52" height="60" style="fill:rgb(0%,0%,0%);fill-opacity:0.4;stroke:none;"/>
  </g>
</mask>
<clipPath id="clip2">
  <rect x="0" y="0" width="52" height="60"/>
</clipPath>
<g id="surface8" clip-path="url(#clip2)">
<path style=" stroke:none;fill-rule:nonzero;fill:rgb(42.745098%,43.137255%,44.313726%);fill-opacity:1;" d="M 9.824219 51.894531 C 10.390625 52.371094 11.039062 52.742188 11.699219 53.078125 C 12.363281 53.414062 13.042969 53.726562 13.6875 54.097656 C 14.300781 54.453125 14.894531 54.871094 15.351562 55.421875 C 15.589844 55.707031 15.773438 56.015625 15.839844 56.386719 C 15.90625 56.765625 15.859375 57.160156 15.734375 57.519531 C 15.621094 57.839844 15.453125 58.132812 15.203125 58.367188 C 15.15625 58.414062 15.101562 58.457031 15.046875 58.5 L 21.21875 58.5 C 21.179688 58.28125 21.195312 58.054688 21.300781 57.847656 C 21.433594 57.578125 21.691406 57.402344 21.972656 57.308594 C 22.183594 57.242188 22.40625 57.210938 22.625 57.195312 C 22.863281 57.179688 23.101562 57.1875 23.339844 57.203125 C 24.214844 57.265625 25.132812 57.492188 26 57.265625 L 26 55.4375 L 25.488281 55.007812 C 13.855469 47.285156 10.257812 49.082031 10.257812 49.082031 C 10.257812 49.082031 9.429688 49.410156 8.332031 49.910156 C 8.355469 49.957031 8.378906 50.003906 8.402344 50.050781 C 8.769531 50.742188 9.222656 51.382812 9.824219 51.894531 Z M 9.824219 51.894531 "/>
</g>
<mask id="mask2">
  <g filter="url(#alpha)">
<rect x="0" y="0" width="52" height="60" style="fill:rgb(0%,0%,0%);fill-opacity:0.8;stroke:none;"/>
  </g>
</mask>
<clipPath id="clip3">
  <rect x="0" y="0" width="52" height="60"/>
</clipPath>
<g id="surface11" clip-path="url(#clip3)">
<path style=" stroke:none;fill-rule:nonzero;fill:rgb(50.980395%,8.235294%,13.333334%);fill-opacity:1;" d="M 24.484375 56.675781 C 24.011719 56.453125 23.570312 56.148438 23.148438 55.835938 C 22.675781 55.484375 22.226562 55.097656 21.808594 54.679688 C 21.398438 54.261719 21.011719 53.808594 20.679688 53.324219 C 20.371094 52.871094 20.085938 52.40625 19.789062 51.945312 C 19.1875 51.019531 18.523438 50.109375 17.589844 49.488281 C 16.804688 48.96875 15.757812 48.683594 14.925781 49.277344 C 14.519531 49.570312 14.253906 50.023438 14.109375 50.492188 C 14.003906 50.847656 14.007812 51.320312 13.714844 51.582031 C 13.558594 51.722656 13.347656 51.769531 13.144531 51.777344 C 12.855469 51.792969 12.570312 51.742188 12.300781 51.660156 C 12.019531 51.574219 11.75 51.457031 11.488281 51.328125 C 11.25 51.210938 11.023438 51.066406 10.785156 50.949219 C 10.089844 50.597656 9.382812 50.191406 8.835938 49.625 C 8.617188 49.402344 8.417969 49.140625 8.320312 48.84375 C 8.183594 49.199219 8.128906 49.523438 8.21875 49.769531 C 8.644531 50.964844 15.476562 55.609375 26.023438 57.183594 L 26.023438 57.179688 C 25.492188 57.074219 24.972656 56.90625 24.484375 56.675781 Z M 24.484375 56.675781 "/>
</g>
<mask id="mask3">
  <g filter="url(#alpha)">
<rect x="0" y="0" width="52" height="60" style="fill:rgb(0%,0%,0%);fill-opacity:0.501961;stroke:none;"/>
  </g>
</mask>
<clipPath id="clip4">
  <rect x="0" y="0" width="52" height="60"/>
</clipPath>
<g id="surface14" clip-path="url(#clip4)">
<path style=" stroke:none;fill-rule:nonzero;fill:rgb(50.980395%,8.235294%,13.333334%);fill-opacity:1;" d="M 17.359375 46.625 C 18.433594 47.738281 19.492188 48.867188 20.492188 50.050781 C 21.523438 51.269531 22.503906 52.542969 23.363281 53.890625 C 23.765625 54.519531 24.148438 55.167969 24.472656 55.84375 C 24.660156 56.226562 24.828125 56.621094 24.980469 57.015625 C 25.324219 57.074219 25.671875 57.132812 26.023438 57.183594 L 26.023438 54.03125 C 26.023438 54.03125 18.515625 46.652344 14.617188 44.054688 C 15.585938 44.847656 16.488281 45.726562 17.359375 46.625 Z M 17.359375 46.625 "/>
</g>
<mask id="mask4">
  <g filter="url(#alpha)">
<rect x="0" y="0" width="52" height="60" style="fill:rgb(0%,0%,0%);fill-opacity:0.501961;stroke:none;"/>
  </g>
</mask>
<clipPath id="clip5">
  <rect x="0" y="0" width="52" height="60"/>
</clipPath>
<g id="surface17" clip-path="url(#clip5)">
<path style=" stroke:none;fill-rule:nonzero;fill:rgb(50.980395%,8.235294%,13.333334%);fill-opacity:1;" d="M 20.464844 58.5 C 19.742188 56.257812 17.535156 49.796875 16.0625 49.472656 C 13.761719 48.96875 16.75 55.195312 18.148438 58.5 Z M 20.464844 58.5 "/>
</g>
<mask id="mask5">
  <g filter="url(#alpha)">
<rect x="0" y="0" width="52" height="60" style="fill:rgb(0%,0%,0%);fill-opacity:0.4;stroke:none;"/>
  </g>
</mask>
<clipPath id="clip6">
  <rect x="0" y="0" width="52" height="60"/>
</clipPath>
<g id="surface20" clip-path="url(#clip6)">
<path style=" stroke:none;fill-rule:nonzero;fill:rgb(42.745098%,43.137255%,44.313726%);fill-opacity:1;" d="M 28.660156 57.203125 C 28.898438 57.1875 29.136719 57.179688 29.375 57.195312 C 29.59375 57.210938 29.816406 57.242188 30.027344 57.308594 C 30.308594 57.398438 30.566406 57.578125 30.699219 57.847656 C 30.804688 58.054688 30.820312 58.28125 30.78125 58.5 L 36.949219 58.5 C 36.898438 58.457031 36.84375 58.414062 36.796875 58.367188 C 36.546875 58.132812 36.378906 57.839844 36.265625 57.519531 C 36.140625 57.15625 36.09375 56.765625 36.160156 56.386719 C 36.226562 56.015625 36.410156 55.707031 36.648438 55.421875 C 37.105469 54.871094 37.699219 54.453125 38.3125 54.097656 C 38.957031 53.726562 39.636719 53.414062 40.300781 53.078125 C 40.960938 52.742188 41.605469 52.371094 42.175781 51.890625 C 42.777344 51.382812 43.230469 50.742188 43.597656 50.050781 C 43.621094 50.003906 43.644531 49.957031 43.667969 49.910156 C 42.570312 49.410156 41.742188 49.082031 41.742188 49.082031 C 41.742188 49.082031 38.144531 47.285156 26.511719 55.007812 L 26 55.4375 L 26 57.265625 C 26.867188 57.492188 27.785156 57.265625 28.660156 57.203125 Z M 28.660156 57.203125 "/>
</g>
<mask id="mask6">
  <g filter="url(#alpha)">
<rect x="0" y="0" width="52" height="60" style="fill:rgb(0%,0%,0%);fill-opacity:0.8;stroke:none;"/>
  </g>
</mask>
<clipPath id="clip7">
  <rect x="0" y="0" width="52" height="60"/>
</clipPath>
<g id="surface23" clip-path="url(#clip7)">
<path style=" stroke:none;fill-rule:nonzero;fill:rgb(50.980395%,8.235294%,13.333334%);fill-opacity:1;" d="M 27.515625 56.675781 C 27.988281 56.453125 28.429688 56.148438 28.851562 55.835938 C 29.324219 55.484375 29.773438 55.097656 30.191406 54.679688 C 30.601562 54.261719 30.988281 53.808594 31.320312 53.324219 C 31.628906 52.871094 31.914062 52.40625 32.210938 51.945312 C 32.8125 51.019531 33.476562 50.109375 34.410156 49.488281 C 35.195312 48.96875 36.242188 48.683594 37.074219 49.277344 C 37.480469 49.570312 37.746094 50.023438 37.890625 50.492188 C 37.996094 50.847656 37.992188 51.320312 38.285156 51.582031 C 38.441406 51.722656 38.652344 51.769531 38.855469 51.777344 C 39.144531 51.792969 39.429688 51.742188 39.699219 51.660156 C 39.980469 51.574219 40.25 51.457031 40.511719 51.328125 C 40.75 51.210938 40.976562 51.066406 41.214844 50.949219 C 41.910156 50.597656 42.617188 50.191406 43.164062 49.625 C 43.382812 49.402344 43.582031 49.140625 43.679688 48.84375 C 43.816406 49.199219 43.871094 49.523438 43.78125 49.769531 C 43.355469 50.964844 36.523438 55.609375 25.976562 57.183594 L 25.976562 57.179688 C 26.507812 57.074219 27.027344 56.90625 27.515625 56.675781 Z M 27.515625 56.675781 "/>
</g>
<mask id="mask7">
  <g filter="url(#alpha)">
<rect x="0" y="0" width="52" height="60" style="fill:rgb(0%,0%,0%);fill-opacity:0.501961;stroke:none;"/>
  </g>
</mask>
<clipPath id="clip8">
  <rect x="0" y="0" width="52" height="60"/>
</clipPath>
<g id="surface26" clip-path="url(#clip8)">
<path style=" stroke:none;fill-rule:nonzero;fill:rgb(50.980395%,8.235294%,13.333334%);fill-opacity:1;" d="M 34.640625 46.625 C 33.566406 47.738281 32.507812 48.867188 31.507812 50.050781 C 30.476562 51.269531 29.496094 52.542969 28.636719 53.890625 C 28.234375 54.519531 27.851562 55.167969 27.527344 55.84375 C 27.339844 56.226562 27.171875 56.621094 27.019531 57.015625 C 26.675781 57.074219 26.328125 57.132812 25.976562 57.183594 L 25.976562 54.03125 C 25.976562 54.03125 33.484375 46.652344 37.382812 44.054688 C 36.414062 44.847656 35.511719 45.726562 34.640625 46.625 Z M 34.640625 46.625 "/>
</g>
<mask id="mask8">
  <g filter="url(#alpha)">
<rect x="0" y="0" width="52" height="60" style="fill:rgb(0%,0%,0%);fill-opacity:0.501961;stroke:none;"/>
  </g>
</mask>
<clipPath id="clip9">
  <rect x="0" y="0" width="52" height="60"/>
</clipPath>
<g id="surface29" clip-path="url(#clip9)">
<path style=" stroke:none;fill-rule:nonzero;fill:rgb(50.980395%,8.235294%,13.333334%);fill-opacity:1;" d="M 33.851562 58.5 C 35.25 55.195312 38.238281 48.96875 35.9375 49.472656 C 34.464844 49.796875 32.257812 56.257812 31.535156 58.5 Z M 33.851562 58.5 "/>
</g>
<mask id="mask9">
  <g filter="url(#alpha)">
<rect x="0" y="0" width="52" height="60" style="fill:rgb(0%,0%,0%);fill-opacity:0.6;stroke:none;"/>
  </g>
</mask>
<clipPath id="clip10">
  <rect x="0" y="0" width="52" height="60"/>
</clipPath>
<g id="surface32" clip-path="url(#clip10)">
<path style=" stroke:none;fill-rule:nonzero;fill:rgb(99.607843%,81.568629%,61.960787%);fill-opacity:1;" d="M 28.785156 30.035156 C 28.785156 30.035156 28.214844 31.625 26.984375 31.101562 C 26.984375 31.101562 26.753906 31.882812 26.007812 31.882812 L 25.992188 31.882812 C 25.246094 31.882812 25.015625 31.101562 25.015625 31.101562 C 23.785156 31.625 23.214844 30.035156 23.214844 30.035156 C 23.214844 30.035156 25.386719 26.066406 26.035156 26.066406 C 26.679688 26.066406 28.785156 30.035156 28.785156 30.035156 Z M 28.785156 30.035156 "/>
</g>
</defs>
<g id="surface1">
<path style=" stroke:none;fill-rule:nonzero;fill:rgb(50.980395%,8.235294%,13.333334%);fill-opacity:1;" d="M 41.320312 46.289062 C 41.320312 43.21875 34.460938 40.730469 26 40.730469 C 17.539062 40.730469 10.679688 43.21875 10.679688 46.289062 C 10.679688 49.359375 17.539062 51.851562 26 51.851562 C 34.460938 51.851562 41.320312 49.359375 41.320312 46.289062 Z M 41.320312 46.289062 "/>
<path style=" stroke:none;fill-rule:nonzero;fill:rgb(50.980395%,8.235294%,13.333334%);fill-opacity:1;" d="M 41.320312 46.289062 C 41.320312 43.21875 34.460938 40.730469 26 40.730469 C 17.539062 40.730469 10.679688 43.21875 10.679688 46.289062 C 10.679688 49.359375 17.539062 51.851562 26 51.851562 C 34.460938 51.851562 41.320312 49.359375 41.320312 46.289062 Z M 41.320312 46.289062 "/>
<path style=" stroke:none;fill-rule:nonzero;fill:rgb(82.745099%,57.254905%,43.137255%);fill-opacity:1;" d="M 32.832031 36.539062 C 32.832031 36.539062 31.71875 41.703125 32.398438 46.289062 C 32.398438 46.289062 34.234375 47.832031 36.507812 48.605469 C 36.507812 48.605469 34.910156 54.203125 26.011719 54.203125 L 25.988281 54.203125 C 17.089844 54.203125 15.492188 48.605469 15.492188 48.605469 C 17.765625 47.832031 19.601562 46.289062 19.601562 46.289062 C 20.28125 41.703125 19.167969 36.539062 19.167969 36.539062 Z M 32.832031 36.539062 "/>
<use xlink:href="#surface5" mask="url(#mask0)"/>
<path style=" stroke:none;fill-rule:nonzero;fill:rgb(42.745098%,43.137255%,44.313726%);fill-opacity:1;" d="M 26 58.5 L 26 55.4375 L 25.488281 55.007812 C 13.855469 47.285156 10.257812 49.082031 10.257812 49.082031 C 10.257812 49.082031 4.402344 51.414062 3.191406 53.078125 C 2.160156 54.496094 1.480469 57.621094 1.304688 58.5 Z M 26 58.5 "/>
<use xlink:href="#surface8" mask="url(#mask1)"/>
<path style=" stroke:none;fill-rule:nonzero;fill:rgb(50.980395%,8.235294%,13.333334%);fill-opacity:1;" d="M 26.023438 57.183594 L 26.023438 54.03125 C 26.023438 54.03125 14.75 42.953125 12.660156 43.164062 C 10.566406 43.378906 9.796875 44.441406 10.652344 45.550781 C 10.652344 45.550781 7.792969 48.578125 8.21875 49.769531 C 8.644531 50.964844 15.476562 55.609375 26.023438 57.183594 Z M 26.023438 57.183594 "/>
<use xlink:href="#surface11" mask="url(#mask2)"/>
<use xlink:href="#surface14" mask="url(#mask3)"/>
<path style=" stroke:none;fill-rule:nonzero;fill:rgb(50.980395%,8.235294%,13.333334%);fill-opacity:1;" d="M 20.464844 58.5 C 19.742188 56.257812 17.535156 49.796875 16.0625 49.472656 C 13.761719 48.96875 16.75 55.195312 18.148438 58.5 Z M 20.464844 58.5 "/>
<use xlink:href="#surface17" mask="url(#mask4)"/>
<path style=" stroke:none;fill-rule:nonzero;fill:rgb(42.745098%,43.137255%,44.313726%);fill-opacity:1;" d="M 50.695312 58.5 C 50.519531 57.621094 49.839844 54.496094 48.808594 53.078125 C 47.597656 51.414062 41.742188 49.082031 41.742188 49.082031 C 41.742188 49.082031 38.144531 47.285156 26.511719 55.007812 L 26 55.4375 L 26 58.5 Z M 50.695312 58.5 "/>
<use xlink:href="#surface20" mask="url(#mask5)"/>
<path style=" stroke:none;fill-rule:nonzero;fill:rgb(50.980395%,8.235294%,13.333334%);fill-opacity:1;" d="M 25.976562 57.183594 L 25.976562 54.03125 C 25.976562 54.03125 37.25 42.953125 39.339844 43.164062 C 41.433594 43.378906 42.203125 44.441406 41.347656 45.550781 C 41.347656 45.550781 44.207031 48.578125 43.78125 49.769531 C 43.355469 50.964844 36.523438 55.609375 25.976562 57.183594 Z M 25.976562 57.183594 "/>
<use xlink:href="#surface23" mask="url(#mask6)"/>
<use xlink:href="#surface26" mask="url(#mask7)"/>
<path style=" stroke:none;fill-rule:nonzero;fill:rgb(50.980395%,8.235294%,13.333334%);fill-opacity:1;" d="M 33.851562 58.5 C 35.25 55.195312 38.238281 48.96875 35.9375 49.472656 C 34.464844 49.796875 32.257812 56.257812 31.535156 58.5 Z M 33.851562 58.5 "/>
<use xlink:href="#surface29" mask="url(#mask8)"/>
<path style=" stroke:none;fill-rule:nonzero;fill:rgb(82.745099%,57.254905%,43.137255%);fill-opacity:1;" d="M 37.359375 14.6875 C 37.464844 16.226562 37.269531 17.820312 37.183594 19.316406 C 37.035156 21.910156 36.800781 24.503906 36.445312 27.078125 C 36.113281 29.492188 35.699219 31.96875 34.804688 34.246094 C 33.679688 37.097656 30.675781 38.867188 27.972656 39.988281 C 27.421875 40.21875 26.871094 40.511719 26.269531 40.585938 C 25.621094 40.664062 25.035156 40.390625 24.449219 40.160156 C 23.203125 39.671875 21.996094 39.078125 20.878906 38.34375 C 19.332031 37.332031 17.882812 35.996094 17.191406 34.246094 C 15.355469 29.589844 15.097656 24.175781 14.804688 19.234375 C 14.671875 16.929688 14.265625 14.410156 15.253906 12.25 C 15.835938 10.972656 16.773438 9.890625 17.917969 9.085938 C 20.296875 7.40625 23.351562 6.957031 26.199219 6.957031 C 29.996094 6.957031 34.496094 7.859375 36.496094 11.46875 C 37.050781 12.46875 37.285156 13.5625 37.359375 14.6875 Z M 37.359375 14.6875 "/>
<path style=" stroke:none;fill-rule:nonzero;fill:rgb(82.745099%,57.254905%,43.137255%);fill-opacity:1;" d="M 16.539062 19.871094 C 17.980469 18.703125 20.007812 18.253906 21.539062 15.601562 C 23.070312 12.949219 27.300781 11.558594 28.878906 13.128906 C 30.453125 14.703125 34.175781 19.191406 36.59375 11.824219 C 36.605469 11.785156 36.617188 11.75 36.628906 11.710938 C 36.585938 11.628906 36.546875 11.546875 36.5 11.46875 C 34.503906 7.859375 30.003906 6.957031 26.207031 6.957031 C 23.355469 6.957031 20.304688 7.40625 17.921875 9.085938 C 16.777344 9.890625 15.84375 10.972656 15.261719 12.25 C 14.273438 14.410156 14.679688 16.929688 14.8125 19.234375 C 14.9375 21.339844 15.054688 23.535156 15.292969 25.71875 C 15.277344 24.648438 15.308594 20.871094 16.539062 19.871094 Z M 16.539062 19.871094 "/>
<path style=" stroke:none;fill-rule:nonzero;fill:rgb(82.745099%,57.254905%,43.137255%);fill-opacity:1;" d="M 15.832031 25.90625 C 15.523438 25.058594 15.164062 24.226562 14.558594 23.546875 C 13.449219 22.296875 11.40625 22.882812 10.820312 24.359375 C 10.359375 25.527344 10.859375 26.871094 11.4375 27.90625 C 11.972656 28.855469 12.675781 29.824219 13.730469 30.253906 C 14.609375 30.613281 16.214844 30.734375 16.566406 29.582031 C 16.855469 28.632812 16.351562 27.375 16.039062 26.484375 C 15.972656 26.289062 15.902344 26.097656 15.832031 25.90625 Z M 15.832031 25.90625 "/>
<path style=" stroke:none;fill-rule:nonzero;fill:rgb(82.745099%,57.254905%,43.137255%);fill-opacity:1;" d="M 14.457031 26.101562 C 14.457031 26.101562 13.6875 25.695312 13.640625 26.628906 C 13.597656 27.566406 14.429688 28.09375 14.429688 28.09375 C 14.429688 28.09375 12.128906 28.484375 11.902344 26.085938 C 11.675781 23.6875 14.003906 23.898438 14.457031 26.101562 Z M 14.457031 26.101562 "/>
<path style=" stroke:none;fill-rule:nonzero;fill:rgb(82.745099%,57.254905%,43.137255%);fill-opacity:1;" d="M 36.167969 25.90625 C 36.476562 25.058594 36.835938 24.226562 37.441406 23.546875 C 38.550781 22.296875 40.59375 22.882812 41.179688 24.359375 C 41.640625 25.527344 41.140625 26.871094 40.5625 27.90625 C 40.027344 28.855469 39.324219 29.824219 38.269531 30.253906 C 37.390625 30.613281 35.78125 30.734375 35.433594 29.582031 C 35.144531 28.632812 35.648438 27.375 35.960938 26.484375 C 36.027344 26.289062 36.097656 26.097656 36.167969 25.90625 Z M 36.167969 25.90625 "/>
<path style=" stroke:none;fill-rule:nonzero;fill:rgb(82.745099%,57.254905%,43.137255%);fill-opacity:1;" d="M 37.542969 26.101562 C 37.542969 26.101562 38.3125 25.695312 38.359375 26.628906 C 38.402344 27.566406 37.570312 28.09375 37.570312 28.09375 C 37.570312 28.09375 39.871094 28.484375 40.097656 26.085938 C 40.324219 23.6875 37.996094 23.898438 37.542969 26.101562 Z M 37.542969 26.101562 "/>
<path style=" stroke:none;fill-rule:nonzero;fill:rgb(45.882353%,29.803923%,16.078432%);fill-opacity:1;" d="M 23.484375 21.847656 C 22.410156 21.871094 21.625 21.511719 19.382812 21.132812 C 17.140625 20.753906 15.75 22.183594 15.75 22.183594 C 15.75 22.183594 16.46875 20.558594 18.898438 20.101562 C 21.328125 19.648438 23.214844 20.328125 23.316406 20.746094 C 23.417969 21.164062 23.34375 21.417969 23.429688 21.582031 C 23.429688 21.582031 23.429688 20.773438 23.671875 20.53125 C 23.671875 20.53125 23.507812 21.023438 23.59375 21.429688 C 23.683594 21.832031 23.484375 21.847656 23.484375 21.847656 Z M 23.484375 21.847656 "/>
<path style=" stroke:none;fill-rule:nonzero;fill:rgb(100%,100%,100%);fill-opacity:1;" d="M 17.648438 24.214844 L 17.882812 25.3125 C 17.882812 25.3125 18.617188 26.382812 20.445312 26.59375 C 22.273438 26.804688 23.289062 25.886719 23.289062 25.886719 C 23.289062 25.886719 23.242188 22.859375 20.320312 22.824219 C 17.398438 22.785156 17.648438 24.214844 17.648438 24.214844 Z M 17.648438 24.214844 "/>
<path style=" stroke:none;fill-rule:nonzero;fill:rgb(16.470589%,43.921569%,60.784316%);fill-opacity:1;" d="M 22.335938 24.007812 C 22.125 23.113281 21.226562 22.558594 20.328125 22.769531 C 19.429688 22.980469 18.875 23.878906 19.085938 24.773438 C 19.300781 25.667969 20.199219 26.222656 21.09375 26.011719 C 21.992188 25.800781 22.546875 24.902344 22.335938 24.007812 Z M 22.335938 24.007812 "/>
<path style=" stroke:none;fill-rule:nonzero;fill:rgb(14.117648%,12.156863%,12.54902%);fill-opacity:1;" d="M 21.175781 23.277344 C 20.558594 23.023438 19.851562 23.316406 19.597656 23.929688 C 19.339844 24.546875 19.632812 25.253906 20.25 25.507812 C 20.867188 25.761719 21.574219 25.46875 21.828125 24.855469 C 22.085938 24.238281 21.792969 23.535156 21.175781 23.277344 Z M 21.175781 23.277344 "/>
<path style=" stroke:none;fill-rule:nonzero;fill:rgb(100%,100%,100%);fill-opacity:1;" d="M 21.074219 24.054688 C 21.074219 24.328125 21.296875 24.554688 21.574219 24.554688 C 21.851562 24.554688 22.078125 24.328125 22.078125 24.054688 C 22.078125 23.777344 21.851562 23.550781 21.574219 23.550781 C 21.296875 23.550781 21.074219 23.777344 21.074219 24.054688 Z M 21.074219 24.054688 "/>
<path style=" stroke:none;fill-rule:nonzero;fill:rgb(45.882353%,29.803923%,16.078432%);fill-opacity:1;" d="M 23.289062 25.886719 C 23.289062 25.886719 23.347656 23.039062 21.199219 22.59375 C 19.054688 22.144531 17.265625 23.597656 17.265625 23.597656 C 17.265625 23.597656 17.152344 24.660156 17.882812 25.308594 C 17.882812 25.308594 17.808594 23.878906 17.957031 23.710938 C 18.105469 23.542969 19.738281 22.542969 21.519531 23.226562 C 23.066406 23.820312 23.289062 25.886719 23.289062 25.886719 Z M 23.289062 25.886719 "/>
<path style=" stroke:none;fill-rule:nonzero;fill:rgb(45.882353%,29.803923%,16.078432%);fill-opacity:1;" d="M 28.320312 21.847656 C 29.394531 21.871094 30.179688 21.511719 32.421875 21.132812 C 34.664062 20.753906 36.054688 22.183594 36.054688 22.183594 C 36.054688 22.183594 35.332031 20.558594 32.902344 20.101562 C 30.472656 19.648438 28.589844 20.328125 28.488281 20.746094 C 28.386719 21.164062 28.460938 21.417969 28.371094 21.582031 C 28.371094 21.582031 28.371094 20.773438 28.132812 20.53125 C 28.132812 20.53125 28.296875 21.023438 28.207031 21.429688 C 28.121094 21.832031 28.320312 21.847656 28.320312 21.847656 Z M 28.320312 21.847656 "/>
<path style=" stroke:none;fill-rule:nonzero;fill:rgb(100%,100%,100%);fill-opacity:1;" d="M 34.15625 24.214844 L 33.921875 25.3125 C 33.921875 25.3125 33.1875 26.382812 31.359375 26.59375 C 29.53125 26.804688 28.511719 25.886719 28.511719 25.886719 C 28.511719 25.886719 28.5625 22.859375 31.484375 22.824219 C 34.40625 22.785156 34.15625 24.214844 34.15625 24.214844 Z M 34.15625 24.214844 "/>
<path style=" stroke:none;fill-rule:nonzero;fill:rgb(16.470589%,43.921569%,60.784316%);fill-opacity:1;" d="M 32.273438 23.214844 C 31.621094 22.5625 30.5625 22.5625 29.910156 23.214844 C 29.257812 23.867188 29.257812 24.921875 29.910156 25.570312 C 30.5625 26.222656 31.621094 26.222656 32.273438 25.570312 C 32.925781 24.921875 32.925781 23.867188 32.273438 23.214844 Z M 32.273438 23.214844 "/>
<path style=" stroke:none;fill-rule:nonzero;fill:rgb(14.117648%,12.156863%,12.54902%);fill-opacity:1;" d="M 32.210938 23.929688 C 31.953125 23.316406 31.246094 23.023438 30.628906 23.277344 C 30.011719 23.535156 29.722656 24.238281 29.976562 24.855469 C 30.230469 25.46875 30.9375 25.761719 31.554688 25.507812 C 32.171875 25.253906 32.464844 24.546875 32.210938 23.929688 Z M 32.210938 23.929688 "/>
<path style=" stroke:none;fill-rule:nonzero;fill:rgb(100%,100%,100%);fill-opacity:1;" d="M 30.726562 24.011719 C 30.707031 23.738281 30.464844 23.53125 30.1875 23.550781 C 29.910156 23.574219 29.703125 23.8125 29.726562 24.089844 C 29.746094 24.367188 29.988281 24.574219 30.265625 24.550781 C 30.542969 24.53125 30.75 24.289062 30.726562 24.011719 Z M 30.726562 24.011719 "/>
<path style=" stroke:none;fill-rule:nonzero;fill:rgb(45.882353%,29.803923%,16.078432%);fill-opacity:1;" d="M 28.515625 25.886719 C 28.515625 25.886719 28.457031 23.039062 30.601562 22.59375 C 32.746094 22.144531 34.539062 23.597656 34.539062 23.597656 C 34.539062 23.597656 34.648438 24.660156 33.921875 25.308594 C 33.921875 25.308594 33.996094 23.878906 33.847656 23.710938 C 33.699219 23.542969 32.0625 22.542969 30.285156 23.226562 C 28.738281 23.820312 28.515625 25.886719 28.515625 25.886719 Z M 28.515625 25.886719 "/>
<use xlink:href="#surface32" mask="url(#mask9)"/>
<path style=" stroke:none;fill-rule:nonzero;fill:rgb(45.882353%,29.803923%,16.078432%);fill-opacity:1;" d="M 24.246094 30.542969 C 24.089844 30.625 24.402344 30.949219 24.679688 31.195312 C 24.785156 31.179688 24.894531 31.152344 25.015625 31.101562 C 25.015625 31.101562 24.507812 30.40625 24.246094 30.542969 Z M 24.246094 30.542969 "/>
<path style=" stroke:none;fill-rule:nonzero;fill:rgb(45.882353%,29.803923%,16.078432%);fill-opacity:1;" d="M 27.757812 30.542969 C 27.914062 30.625 27.601562 30.949219 27.324219 31.195312 C 27.21875 31.179688 27.105469 31.152344 26.988281 31.101562 C 26.988281 31.101562 27.496094 30.40625 27.757812 30.542969 Z M 27.757812 30.542969 "/>
<path style=" stroke:none;fill-rule:nonzero;fill:rgb(99.607843%,81.568629%,61.960787%);fill-opacity:1;" d="M 28.320312 29.996094 C 28.039062 29.941406 27.761719 29.894531 27.480469 29.851562 C 26.917969 29.769531 26.351562 29.71875 25.789062 29.707031 C 25.285156 29.699219 24.777344 29.714844 24.273438 29.789062 C 23.921875 29.84375 23.566406 29.925781 23.234375 30.089844 C 23.34375 30.355469 23.917969 31.566406 25.015625 31.101562 C 25.015625 31.101562 25.246094 31.882812 25.992188 31.882812 L 26.007812 31.882812 C 26.753906 31.882812 26.984375 31.101562 26.984375 31.101562 C 28.054688 31.554688 28.625 30.417969 28.757812 30.109375 C 28.613281 30.066406 28.46875 30.027344 28.320312 29.996094 Z M 28.320312 29.996094 "/>
<path style=" stroke:none;fill-rule:nonzero;fill:rgb(13.725491%,12.156863%,12.54902%);fill-opacity:1;" d="M 30.65625 33.359375 C 29.902344 33.882812 28.992188 34.117188 28.101562 34.28125 C 27.996094 34.296875 27.75 34.332031 27.652344 34.34375 C 27.558594 34.355469 27.296875 34.382812 27.199219 34.390625 C 26.855469 34.421875 26.347656 34.433594 25.996094 34.4375 L 25.996094 34.34375 L 26.007812 34.34375 L 26.007812 34.4375 L 25.40625 34.429688 C 25.0625 34.414062 24.695312 34.386719 24.351562 34.347656 C 24.253906 34.332031 24.007812 34.296875 23.90625 34.285156 C 23.210938 34.160156 22.511719 33.984375 21.875 33.675781 C 21.691406 33.585938 21.515625 33.492188 21.34375 33.363281 L 21.449219 33.234375 C 22.09375 33.691406 22.871094 33.929688 23.632812 34.097656 C 23.632812 34.097656 23.925781 34.160156 23.925781 34.160156 C 24.027344 34.175781 24.269531 34.214844 24.367188 34.230469 C 24.707031 34.273438 25.070312 34.304688 25.410156 34.324219 L 26.007812 34.34375 L 26.007812 34.4375 L 25.996094 34.4375 L 25.996094 34.34375 C 26.460938 34.335938 27.027344 34.308594 27.488281 34.25 C 27.65625 34.234375 27.910156 34.1875 28.078125 34.160156 C 28.761719 34.03125 29.441406 33.851562 30.0625 33.539062 C 30.234375 33.453125 30.414062 33.351562 30.558594 33.238281 Z M 30.65625 33.359375 "/>
<path style=" stroke:none;fill-rule:nonzero;fill:rgb(22.745098%,24.705882%,30.980393%);fill-opacity:1;" d="M 15.796875 17.492188 C 15.796875 17.492188 14.710938 21.640625 15.300781 26 C 15.300781 26 12.726562 21.828125 13.007812 18.292969 C 13.292969 14.757812 15.796875 17.492188 15.796875 17.492188 Z M 15.796875 17.492188 "/>
<path style=" stroke:none;fill-rule:nonzero;fill:rgb(22.745098%,24.705882%,30.980393%);fill-opacity:1;" d="M 15.796875 17.492188 C 15.796875 17.492188 14.710938 21.640625 15.300781 26 C 15.300781 26 12.726562 21.828125 13.007812 18.292969 C 13.292969 14.757812 15.796875 17.492188 15.796875 17.492188 Z M 15.796875 17.492188 "/>
<path style=" stroke:none;fill-rule:nonzero;fill:rgb(22.745098%,24.705882%,30.980393%);fill-opacity:1;" d="M 15.796875 17.492188 C 15.796875 17.492188 14.710938 21.640625 15.300781 26 C 15.300781 26 12.726562 21.828125 13.007812 18.292969 C 13.292969 14.757812 15.796875 17.492188 15.796875 17.492188 Z M 15.796875 17.492188 "/>
<path style=" stroke:none;fill-rule:nonzero;fill:rgb(22.745098%,24.705882%,30.980393%);fill-opacity:1;" d="M 35.9375 16.082031 C 35.9375 16.082031 37.164062 20.917969 36.5 26 C 36.5 26 39.402344 21.136719 39.082031 17.015625 C 38.761719 12.894531 35.9375 16.082031 35.9375 16.082031 Z M 35.9375 16.082031 "/>
<path style=" stroke:none;fill-rule:nonzero;fill:rgb(22.745098%,24.705882%,30.980393%);fill-opacity:1;" d="M 35.9375 16.082031 C 35.9375 16.082031 37.164062 20.917969 36.5 26 C 36.5 26 39.402344 21.136719 39.082031 17.015625 C 38.761719 12.894531 35.9375 16.082031 35.9375 16.082031 Z M 35.9375 16.082031 "/>
<path style=" stroke:none;fill-rule:nonzero;fill:rgb(22.745098%,24.705882%,30.980393%);fill-opacity:1;" d="M 35.9375 16.082031 C 35.9375 16.082031 37.164062 20.917969 36.5 26 C 36.5 26 39.402344 21.136719 39.082031 17.015625 C 38.761719 12.894531 35.9375 16.082031 35.9375 16.082031 Z M 35.9375 16.082031 "/>
<path style=" stroke:none;fill-rule:nonzero;fill:rgb(22.745098%,24.705882%,30.980393%);fill-opacity:1;" d="M 37.246094 10 C 36.757812 2.207031 27.441406 1.558594 27.441406 1.558594 C 30.136719 2.230469 31.277344 3.273438 31.277344 3.273438 C 23.539062 -0.410156 16.941406 2.789062 16.941406 2.789062 C 18.800781 2.164062 20.632812 2.511719 20.632812 2.511719 C 11.710938 3.136719 10.015625 10.117188 10.015625 10.117188 C 11.503906 7.402344 13.875 7.148438 13.875 7.148438 C 13.875 7.148438 11.039062 8.121094 10.34375 11.066406 C 9.644531 14.011719 10.898438 16.492188 10.898438 16.492188 C 10.785156 14.636719 11.804688 13.457031 11.804688 13.457031 C 10.25 17.492188 12.175781 19.066406 12.175781 19.066406 C 12.039062 18.601562 12.207031 17.945312 12.207031 17.945312 C 12.640625 20.320312 11.386719 21.484375 11.386719 21.484375 C 14.109375 21.179688 14.457031 18.808594 14.457031 18.808594 C 18.949219 18.59375 18.644531 15.1875 24.003906 12.167969 C 29.359375 9.148438 30.355469 15.746094 32.949219 15.660156 C 35.539062 15.574219 36.1875 13.246094 36.1875 13.246094 C 36.1875 13.246094 34.96875 18.28125 37.195312 20.210938 C 37.195312 20.210938 37.078125 18.710938 38.4375 17.761719 C 38.4375 17.761719 37.917969 18.425781 38.003906 18.855469 C 38.003906 18.855469 38.40625 17.933594 39.738281 17.210938 C 41.066406 16.492188 42.019531 11.761719 39.042969 10.546875 C 39.042969 10.546875 41.097656 10.691406 41.386719 13.550781 C 41.386719 13.550781 42.019531 10.203125 38.523438 9.65625 C 38.523438 9.65625 38.570312 7.503906 37.234375 6.550781 C 37.234375 6.550781 38.152344 8.4375 37.246094 10 "/>
<path style=" stroke:none;fill-rule:nonzero;fill:rgb(22.745098%,24.705882%,30.980393%);fill-opacity:1;" d="M 36.640625 10.722656 C 36.640625 10.722656 34.65625 3.464844 26.375 3.652344 C 26.375 3.652344 29.484375 3.691406 31.019531 5.636719 C 31.019531 5.636719 26.449219 2.644531 19.628906 6.457031 C 19.628906 6.457031 30.382812 2.195312 36.640625 10.722656 Z M 36.640625 10.722656 "/>
<path style=" stroke:none;fill-rule:nonzero;fill:rgb(22.745098%,24.705882%,30.980393%);fill-opacity:1;" d="M 31.621094 14.199219 C 30.65625 13.375 30.058594 12.238281 29.007812 11.488281 C 28.027344 10.789062 26.792969 10.546875 25.609375 10.71875 C 23.820312 10.980469 22.324219 12.019531 21.085938 13.289062 C 20.453125 13.9375 19.878906 14.640625 19.3125 15.351562 C 18.738281 16.074219 18.214844 16.898438 17.488281 17.488281 C 16.75 18.085938 15.867188 18.292969 14.9375 18.160156 C 14.667969 18.121094 13.460938 17.933594 13.332031 17.621094 C 13.84375 18.859375 14.457031 18.808594 14.457031 18.808594 C 18.949219 18.59375 18.644531 15.1875 24.003906 12.167969 C 29.363281 9.148438 30.355469 15.746094 32.949219 15.660156 C 35.539062 15.574219 36.1875 13.246094 36.1875 13.246094 C 36.1875 13.246094 36.125 13.507812 36.054688 13.9375 C 36.371094 12.800781 36.59375 11.824219 36.59375 11.824219 C 35.988281 13.511719 33.351562 15.675781 31.621094 14.199219 Z M 31.621094 14.199219 "/>
<path style=" stroke:none;fill-rule:nonzero;fill:rgb(22.745098%,24.705882%,30.980393%);fill-opacity:1;" d="M 21.863281 7.855469 C 16.316406 8.324219 12.933594 11.464844 11.804688 13.457031 C 11.160156 15.125 11.113281 16.375 11.28125 17.265625 C 13.066406 8.972656 21.863281 7.855469 21.863281 7.855469 Z M 21.863281 7.855469 "/>
</g>
</svg>
